<svg width="676" height="396" viewBox="0 0 676 396" fill="none" xmlns="http://www.w3.org/2000/svg">
<g clip-path="url(#clip0_4708_60575)">
<rect width="26.9258" height="26.7576" transform="matrix(0.866041 -0.499972 0.866041 0.499972 126.923 159.453)" fill="#EDE7F6"/>
<rect width="24.9267" height="24.7709" transform="matrix(0.866041 -0.499972 0.866041 0.499972 128.644 160.446)" fill="#B39DDB"/>
<rect width="26.9258" height="26.7576" transform="matrix(0.866041 -0.499972 0.866041 0.499972 502.579 186.418)" fill="#EDE7F6"/>
<rect width="24.9267" height="24.7709" transform="matrix(0.866041 -0.499972 0.866041 0.499972 504.3 187.412)" fill="#B39DDB"/>
<rect width="26.998" height="26.8293" transform="matrix(0.866041 -0.499972 0.866041 0.499972 361.708 295.246)" fill="#E3F2FD"/>
<rect width="24.2748" height="24.1231" transform="matrix(0.866041 -0.499972 0.866041 0.499972 364.084 296.234)" fill="#90CAF9"/>
<rect width="26.998" height="26.8293" transform="matrix(0.866041 -0.499972 0.866041 0.499972 291.505 91.6108)" fill="#E3F2FD"/>
<rect width="24.2748" height="24.1231" transform="matrix(0.866041 -0.499972 0.866041 0.499972 293.881 92.5996)" fill="#90CAF9"/>
<g filter="url(#filter0_d_4708_60575)">
<path d="M128.592 226.194L123.292 223.135V230.202L123.303 230.196C123.357 230.647 123.684 231.09 124.282 231.435L174.929 260.674C176.245 261.434 178.38 261.434 179.696 260.674L226.569 233.614C227.273 233.208 227.6 232.667 227.552 232.136V225.227L222.181 228.328L175.922 201.623C174.606 200.863 172.472 200.863 171.155 201.623L128.592 226.194Z" fill="url(#paint0_linear_4708_60575)"/>
</g>
<rect width="59.6284" height="63.9858" rx="5" transform="matrix(0.866041 -0.499972 0.866041 0.499972 121.898 223.179)" fill="#90CAF9"/>
<rect width="59.6284" height="63.9858" rx="5" transform="matrix(0.866041 -0.499972 0.866041 0.499972 121.898 223.179)" fill="url(#paint1_linear_4708_60575)"/>
<rect width="56.6816" height="60.8238" rx="5" transform="matrix(0.866041 -0.499972 0.866041 0.499972 124.543 223.233)" fill="url(#paint2_linear_4708_60575)"/>
<g filter="url(#filter1_d_4708_60575)">
<path d="M458.857 300.564V297.664H455.142V303.816L455.151 303.82C455.17 304.468 455.607 305.112 456.464 305.607L494.774 327.724C496.526 328.735 499.365 328.735 501.116 327.724L595.177 273.422C596.012 272.94 596.449 272.315 596.488 271.684L596.488 271.683L596.488 271.671C596.491 271.619 596.491 271.567 596.489 271.515L596.495 265.327L591.198 267.463L556.866 247.644C555.115 246.633 552.276 246.633 550.524 247.644L458.857 300.564Z" fill="url(#paint3_linear_4708_60575)"/>
</g>
<rect width="115.933" height="51.5596" rx="5" transform="matrix(0.866041 -0.499972 0.866041 0.499972 453.292 297.674)" fill="#673AB7"/>
<rect width="115.933" height="51.5596" rx="5" transform="matrix(0.866041 -0.499972 0.866041 0.499972 453.292 297.674)" fill="url(#paint4_linear_4708_60575)" fill-opacity="0.3"/>
<mask id="mask0_4708_60575" style="mask-type:alpha" maskUnits="userSpaceOnUse" x="455" y="241" width="141" height="81">
<rect width="115.933" height="51.5596" rx="5" transform="matrix(0.866041 -0.499972 0.866041 0.499972 453.292 297.674)" fill="#673AB7"/>
</mask>
<g mask="url(#mask0_4708_60575)">
</g>
<mask id="mask1_4708_60575" style="mask-type:alpha" maskUnits="userSpaceOnUse" x="455" y="241" width="141" height="81">
<rect width="115.933" height="51.5596" rx="5" transform="matrix(0.866041 -0.499972 0.866041 0.499972 453.292 297.674)" fill="#673AB7"/>
</mask>
<g mask="url(#mask1_4708_60575)">
<rect width="64.3732" height="64.3732" rx="5" transform="matrix(0.866041 -0.499972 0.866041 0.499972 502.437 244.592)" fill="#5E35B1"/>
<rect opacity="0.7" x="0.866041" width="63.3732" height="63.3732" rx="4.5" transform="matrix(0.866041 -0.499972 0.866041 0.499972 470.318 250.822)" stroke="#5E35B1"/>
</g>
</g>
<defs>
<filter id="filter0_d_4708_60575" x="59.2925" y="201.053" width="232.264" height="208.191" filterUnits="userSpaceOnUse" color-interpolation-filters="sRGB">
<feFlood flood-opacity="0" result="BackgroundImageFix"/>
<feColorMatrix in="SourceAlpha" type="matrix" values="0 0 0 0 0 0 0 0 0 0 0 0 0 0 0 0 0 0 127 0" result="hardAlpha"/>
<feOffset dy="84"/>
<feGaussianBlur stdDeviation="32"/>
<feColorMatrix type="matrix" values="0 0 0 0 0.129412 0 0 0 0 0.588235 0 0 0 0 0.952941 0 0 0 0.2 0"/>
<feBlend mode="normal" in2="BackgroundImageFix" result="effect1_dropShadow_4708_60575"/>
<feBlend mode="normal" in="SourceGraphic" in2="effect1_dropShadow_4708_60575" result="shape"/>
</filter>
<filter id="filter1_d_4708_60575" x="391.142" y="206.885" width="269.353" height="209.597" filterUnits="userSpaceOnUse" color-interpolation-filters="sRGB">
<feFlood flood-opacity="0" result="BackgroundImageFix"/>
<feColorMatrix in="SourceAlpha" type="matrix" values="0 0 0 0 0 0 0 0 0 0 0 0 0 0 0 0 0 0 127 0" result="hardAlpha"/>
<feOffset dy="24"/>
<feGaussianBlur stdDeviation="32"/>
<feColorMatrix type="matrix" values="0 0 0 0 0.403922 0 0 0 0 0.227451 0 0 0 0 0.717647 0 0 0 0.2 0"/>
<feBlend mode="normal" in2="BackgroundImageFix" result="effect1_dropShadow_4708_60575"/>
<feBlend mode="normal" in="SourceGraphic" in2="effect1_dropShadow_4708_60575" result="shape"/>
</filter>
<linearGradient id="paint0_linear_4708_60575" x1="175.425" y1="220.155" x2="123.292" y2="231.148" gradientUnits="userSpaceOnUse">
<stop stop-color="#2196F3"/>
<stop offset="1" stop-color="#B1DCFF"/>
</linearGradient>
<linearGradient id="paint1_linear_4708_60575" x1="0.503035" y1="2.68177" x2="20.3032" y2="42.2842" gradientUnits="userSpaceOnUse">
<stop stop-color="#FAFAFA" stop-opacity="0.74"/>
<stop offset="1" stop-color="#91CBFA"/>
</linearGradient>
<linearGradient id="paint2_linear_4708_60575" x1="-18.5494" y1="-44.8799" x2="14.7845" y2="40.5766" gradientUnits="userSpaceOnUse">
<stop stop-color="#FAFAFA" stop-opacity="0.74"/>
<stop offset="1" stop-color="#91CBFA"/>
</linearGradient>
<linearGradient id="paint3_linear_4708_60575" x1="591.479" y1="265.35" x2="462.162" y2="321.062" gradientUnits="userSpaceOnUse">
<stop stop-color="#A491C8"/>
<stop offset="1" stop-color="#D7C5F8"/>
</linearGradient>
<linearGradient id="paint4_linear_4708_60575" x1="8.1531" y1="-0.145767" x2="57.1962" y2="72.3003" gradientUnits="userSpaceOnUse">
<stop stop-color="white"/>
<stop offset="1" stop-color="white" stop-opacity="0"/>
</linearGradient>
<clipPath id="clip0_4708_60575">
<rect width="676" height="396" fill="white"/>
</clipPath>
</defs>
</svg>
