<svg xmlns="http://www.w3.org/2000/svg" xmlns:xlink="http://www.w3.org/1999/xlink" width="252" zoomAndPan="magnify" viewBox="0 0 189 37.5" height="50" preserveAspectRatio="xMidYMid meet" version="1.0"><path fill="#003da0" d="M 34.683594 12.597656 C 34.925781 12.628906 35.164062 12.644531 35.410156 12.644531 C 35.789062 12.660156 36.152344 12.582031 36.492188 12.410156 C 36.757812 12.265625 36.960938 12.0625 37.101562 11.796875 C 37.230469 11.546875 37.296875 11.28125 37.292969 10.996094 C 37.300781 10.769531 37.257812 10.550781 37.15625 10.34375 C 37.070312 10.171875 36.953125 10.023438 36.800781 9.902344 C 36.644531 9.78125 36.476562 9.679688 36.296875 9.601562 C 36.101562 9.519531 35.90625 9.445312 35.703125 9.382812 C 35.46875 9.308594 35.269531 9.238281 35.089844 9.164062 C 34.933594 9.101562 34.796875 9.007812 34.683594 8.882812 C 34.578125 8.746094 34.53125 8.59375 34.539062 8.425781 C 34.539062 8.285156 34.578125 8.160156 34.65625 8.046875 C 34.742188 7.925781 34.855469 7.84375 34.992188 7.792969 C 35.175781 7.726562 35.363281 7.695312 35.558594 7.707031 C 35.746094 7.710938 35.929688 7.738281 36.109375 7.792969 C 36.269531 7.839844 36.421875 7.902344 36.566406 7.980469 C 36.710938 8.058594 36.847656 8.140625 36.984375 8.226562 L 36.984375 7.335938 C 36.816406 7.253906 36.65625 7.1875 36.511719 7.128906 C 36.363281 7.070312 36.207031 7.027344 36.050781 7 C 35.859375 6.972656 35.667969 6.957031 35.476562 6.957031 C 35.183594 6.953125 34.894531 6.996094 34.617188 7.09375 C 34.398438 7.171875 34.203125 7.292969 34.039062 7.457031 C 33.824219 7.6875 33.6875 7.957031 33.632812 8.265625 C 33.578125 8.578125 33.609375 8.875 33.730469 9.167969 C 33.808594 9.335938 33.921875 9.480469 34.066406 9.597656 C 34.207031 9.714844 34.363281 9.808594 34.527344 9.878906 C 34.695312 9.953125 34.867188 10.023438 35.046875 10.089844 C 35.277344 10.171875 35.496094 10.257812 35.699219 10.335938 C 35.878906 10.40625 36.042969 10.507812 36.1875 10.636719 C 36.320312 10.765625 36.382812 10.917969 36.375 11.101562 C 36.386719 11.335938 36.300781 11.53125 36.121094 11.683594 C 35.894531 11.84375 35.640625 11.914062 35.359375 11.894531 C 35.023438 11.894531 34.695312 11.839844 34.375 11.722656 C 34.09375 11.625 33.835938 11.484375 33.597656 11.304688 L 33.597656 12.210938 C 33.78125 12.300781 33.953125 12.378906 34.125 12.449219 C 34.304688 12.519531 34.492188 12.570312 34.683594 12.597656 Z M 34.683594 12.597656 " fill-opacity="1" fill-rule="nonzero"/><path fill="#003da0" d="M 41.945312 12.550781 L 42.910156 12.550781 L 40.828125 7.058594 L 39.863281 7.058594 L 37.71875 12.550781 L 38.625 12.550781 L 39.164062 11.0625 L 41.410156 11.0625 Z M 39.425781 10.320312 L 40.277344 7.960938 L 41.132812 10.320312 Z M 39.425781 10.320312 " fill-opacity="1" fill-rule="nonzero"/><path fill="#003da0" d="M 44.648438 10.765625 L 45.152344 10.210938 L 47 12.550781 L 48.183594 12.550781 L 45.78125 9.519531 L 48.011719 7.058594 L 46.859375 7.058594 L 44.648438 9.722656 L 44.648438 7.058594 L 43.738281 7.058594 L 43.738281 12.550781 L 44.648438 12.550781 Z M 44.648438 10.765625 " fill-opacity="1" fill-rule="nonzero"/><path fill="#003da0" d="M 49.949219 11.0625 L 52.199219 11.0625 L 52.742188 12.550781 L 53.699219 12.550781 L 51.613281 7.058594 L 50.648438 7.058594 L 48.503906 12.550781 L 49.414062 12.550781 Z M 51.070312 7.964844 L 51.929688 10.324219 L 50.21875 10.324219 Z M 51.070312 7.964844 " fill-opacity="1" fill-rule="nonzero"/><path fill="#003da0" d="M 55.421875 10.476562 L 56.585938 10.476562 L 57.867188 12.550781 L 59 12.550781 L 57.527344 10.320312 C 57.714844 10.28125 57.890625 10.207031 58.050781 10.097656 C 58.273438 9.945312 58.441406 9.746094 58.558594 9.503906 C 58.671875 9.253906 58.730469 8.988281 58.726562 8.714844 C 58.726562 8.164062 58.570312 7.75 58.265625 7.472656 C 57.960938 7.199219 57.523438 7.058594 56.953125 7.058594 L 54.515625 7.058594 L 54.515625 12.550781 L 55.421875 12.550781 Z M 55.421875 7.824219 L 56.847656 7.824219 C 57.183594 7.824219 57.429688 7.90625 57.570312 8.070312 C 57.726562 8.277344 57.792969 8.511719 57.777344 8.769531 C 57.800781 9.054688 57.710938 9.296875 57.511719 9.496094 C 57.269531 9.679688 57 9.757812 56.699219 9.734375 L 55.421875 9.734375 Z M 55.421875 7.824219 " fill-opacity="1" fill-rule="nonzero"/><path fill="#003da0" d="M 61.328125 12.550781 L 62.238281 12.550781 L 62.238281 10.097656 L 64.230469 7.058594 L 63.25 7.058594 L 61.839844 9.34375 L 60.375 7.058594 L 59.261719 7.058594 L 61.328125 10.089844 Z M 61.328125 12.550781 " fill-opacity="1" fill-rule="nonzero"/><path fill="#003da0" d="M 64.5625 12.550781 L 65.097656 11.0625 L 67.355469 11.0625 L 67.898438 12.550781 L 68.855469 12.550781 L 66.769531 7.058594 L 65.804688 7.058594 L 63.664062 12.550781 Z M 66.21875 7.964844 L 67.078125 10.324219 L 65.367188 10.324219 Z M 66.21875 7.964844 " fill-opacity="1" fill-rule="nonzero"/><path fill="#003da0" d="M 37.371094 19.53125 C 37.371094 19.957031 37.277344 20.269531 37.085938 20.472656 C 36.867188 20.695312 36.605469 20.796875 36.292969 20.777344 C 35.917969 20.777344 35.648438 20.675781 35.476562 20.472656 C 35.308594 20.269531 35.222656 19.957031 35.222656 19.53125 L 35.222656 16.148438 L 33.832031 16.148438 L 33.832031 19.589844 C 33.832031 20.355469 34.039062 20.917969 34.460938 21.277344 C 34.882812 21.636719 35.515625 21.816406 36.359375 21.816406 C 36.769531 21.824219 37.164062 21.742188 37.539062 21.578125 C 37.882812 21.417969 38.148438 21.175781 38.339844 20.847656 C 38.554688 20.457031 38.652344 20.035156 38.636719 19.589844 L 38.636719 16.148438 L 37.367188 16.148438 Z M 37.371094 19.53125 " fill-opacity="1" fill-rule="nonzero"/><path fill="#003da0" d="M 42.28125 18.234375 L 41.039062 16.148438 L 39.398438 16.148438 L 41.480469 19.269531 L 41.480469 21.640625 L 42.816406 21.640625 L 42.816406 19.289062 L 44.734375 16.148438 L 43.410156 16.148438 Z M 42.28125 18.234375 " fill-opacity="1" fill-rule="nonzero"/><path fill="#003da0" d="M 46.203125 21.46875 C 46.652344 21.671875 47.125 21.769531 47.617188 21.757812 C 48 21.757812 48.378906 21.703125 48.75 21.601562 C 49.125 21.496094 49.480469 21.347656 49.824219 21.160156 L 49.824219 18.578125 L 47.582031 18.578125 L 47.582031 19.617188 L 48.488281 19.617188 L 48.488281 20.589844 C 48.378906 20.640625 48.265625 20.675781 48.148438 20.691406 C 48.011719 20.710938 47.871094 20.71875 47.734375 20.71875 C 47.46875 20.726562 47.21875 20.671875 46.984375 20.550781 C 46.75 20.421875 46.582031 20.230469 46.480469 19.980469 C 46.347656 19.628906 46.292969 19.269531 46.3125 18.894531 C 46.292969 18.519531 46.347656 18.15625 46.480469 17.804688 C 46.578125 17.554688 46.746094 17.363281 46.984375 17.242188 C 47.238281 17.121094 47.507812 17.066406 47.789062 17.070312 C 48.089844 17.070312 48.382812 17.125 48.664062 17.230469 C 48.980469 17.347656 49.285156 17.484375 49.585938 17.640625 L 49.585938 16.429688 C 49.277344 16.300781 48.960938 16.203125 48.636719 16.132812 C 48.304688 16.0625 47.964844 16.023438 47.625 16.023438 C 47.132812 16.015625 46.660156 16.113281 46.210938 16.328125 C 45.796875 16.535156 45.484375 16.847656 45.273438 17.261719 C 44.808594 18.359375 44.808594 19.457031 45.273438 20.554688 C 45.480469 20.964844 45.789062 21.269531 46.203125 21.46875 Z M 46.203125 21.46875 " fill-opacity="1" fill-rule="nonzero"/><path fill="#003da0" d="M 55.386719 20.847656 C 55.597656 20.457031 55.695312 20.035156 55.679688 19.589844 L 55.679688 16.148438 L 54.410156 16.148438 L 54.410156 19.53125 C 54.410156 19.957031 54.316406 20.269531 54.125 20.472656 C 53.90625 20.695312 53.640625 20.796875 53.332031 20.777344 C 52.957031 20.777344 52.683594 20.675781 52.515625 20.472656 C 52.34375 20.269531 52.261719 19.957031 52.261719 19.53125 L 52.261719 16.148438 L 50.867188 16.148438 L 50.867188 19.589844 C 50.867188 20.355469 51.078125 20.917969 51.496094 21.277344 C 51.917969 21.636719 52.550781 21.816406 53.394531 21.816406 C 53.808594 21.824219 54.199219 21.742188 54.578125 21.578125 C 54.921875 21.417969 55.191406 21.175781 55.386719 20.847656 Z M 55.386719 20.847656 " fill-opacity="1" fill-rule="nonzero"/><path fill="#003da0" d="M 56.855469 16.148438 L 56.855469 21.640625 L 60.578125 21.640625 L 60.578125 20.59375 L 58.1875 20.59375 L 58.1875 16.148438 Z M 56.855469 16.148438 " fill-opacity="1" fill-rule="nonzero"/><path fill="#003da0" d="M 63.023438 16.148438 L 60.949219 21.640625 L 62.210938 21.640625 L 62.605469 20.460938 L 64.65625 20.460938 L 65.058594 21.640625 L 66.429688 21.640625 L 64.488281 16.148438 Z M 62.929688 19.476562 L 63.621094 17.402344 L 64.320312 19.476562 Z M 62.929688 19.476562 " fill-opacity="1" fill-rule="nonzero"/><path fill="#003da0" d="M 68.5625 17.933594 L 70.132812 20.078125 L 71.75 17.929688 L 71.75 21.640625 L 73.082031 21.640625 L 73.082031 16.148438 L 71.757812 16.148438 L 70.179688 18.289062 L 68.644531 16.148438 L 67.285156 16.148438 L 67.285156 21.640625 L 68.5625 21.640625 Z M 68.5625 17.933594 " fill-opacity="1" fill-rule="nonzero"/><path fill="#003da0" d="M 75.851562 16.148438 L 73.773438 21.640625 L 75.035156 21.640625 L 75.429688 20.460938 L 77.484375 20.460938 L 77.886719 21.640625 L 79.253906 21.640625 L 77.300781 16.148438 Z M 75.757812 19.476562 L 76.449219 17.402344 L 77.152344 19.476562 Z M 75.757812 19.476562 " fill-opacity="1" fill-rule="nonzero"/><path fill="#003da0" d="M 81.445312 16.148438 L 80.109375 16.148438 L 80.109375 21.640625 L 83.835938 21.640625 L 83.835938 20.59375 L 81.445312 20.59375 Z M 81.445312 16.148438 " fill-opacity="1" fill-rule="nonzero"/><path fill="#003da0" d="M 84.636719 16.148438 L 85.972656 16.148438 L 85.972656 21.640625 L 84.636719 21.640625 Z M 84.636719 16.148438 " fill-opacity="1" fill-rule="nonzero"/><path fill="#003da0" d="M 93.679688 18.789062 C 93.601562 18.75 93.523438 18.722656 93.445312 18.695312 L 93.507812 18.664062 C 93.683594 18.566406 93.828125 18.4375 93.945312 18.28125 C 94.074219 18.097656 94.136719 17.894531 94.125 17.671875 C 94.140625 17.351562 94.058594 17.054688 93.878906 16.785156 C 93.703125 16.550781 93.472656 16.390625 93.191406 16.300781 C 92.855469 16.191406 92.507812 16.140625 92.152344 16.148438 L 89.820312 16.148438 L 89.820312 21.640625 L 92.375 21.640625 C 92.726562 21.644531 93.066406 21.585938 93.394531 21.464844 C 93.695312 21.355469 93.9375 21.175781 94.132812 20.921875 C 94.332031 20.636719 94.421875 20.324219 94.40625 19.976562 C 94.414062 19.71875 94.351562 19.476562 94.214844 19.257812 C 94.078125 19.050781 93.898438 18.894531 93.679688 18.789062 Z M 91.148438 17.1875 L 92.136719 17.1875 C 92.300781 17.179688 92.449219 17.222656 92.582031 17.3125 C 92.796875 17.546875 92.832031 17.800781 92.683594 18.082031 C 92.632812 18.160156 92.566406 18.214844 92.484375 18.25 C 92.398438 18.289062 92.3125 18.304688 92.21875 18.304688 L 91.148438 18.304688 Z M 92.929688 20.335938 C 92.859375 20.4375 92.765625 20.507812 92.648438 20.550781 C 92.527344 20.59375 92.398438 20.613281 92.269531 20.613281 L 91.148438 20.613281 L 91.148438 19.285156 L 92.246094 19.285156 C 92.34375 19.285156 92.445312 19.296875 92.542969 19.320312 C 92.632812 19.339844 92.714844 19.375 92.792969 19.421875 C 92.871094 19.46875 92.929688 19.535156 92.96875 19.617188 C 93.019531 19.714844 93.039062 19.820312 93.035156 19.929688 C 93.042969 20.074219 93.011719 20.210938 92.933594 20.335938 Z M 92.929688 20.335938 " fill-opacity="1" fill-rule="nonzero"/><path fill="#003da0" d="M 95.285156 16.148438 L 96.621094 16.148438 L 96.621094 21.640625 L 95.285156 21.640625 Z M 95.285156 16.148438 " fill-opacity="1" fill-rule="nonzero"/><path fill="#003da0" d="M 95.449219 15.078125 L 96.453125 15.078125 L 96.453125 15.902344 L 95.449219 15.902344 Z M 95.449219 15.078125 " fill-opacity="1" fill-rule="nonzero"/><path fill="#003da0" d="M 99.125 16.148438 L 97.789062 16.148438 L 97.789062 21.640625 L 101.515625 21.640625 L 101.515625 20.59375 L 99.125 20.59375 Z M 99.125 16.148438 " fill-opacity="1" fill-rule="nonzero"/><path fill="#003da0" d="M 102.363281 16.148438 L 103.695312 16.148438 L 103.695312 21.640625 L 102.363281 21.640625 Z M 102.363281 16.148438 " fill-opacity="1" fill-rule="nonzero"/><path fill="#003da0" d="M 102.527344 15.078125 L 103.53125 15.078125 L 103.53125 15.902344 L 102.527344 15.902344 Z M 102.527344 15.078125 " fill-opacity="1" fill-rule="nonzero"/><path fill="#003da0" d="M 107.597656 18.289062 L 106.0625 16.148438 L 104.699219 16.148438 L 104.699219 21.640625 L 105.976562 21.640625 L 105.976562 17.933594 L 107.550781 20.078125 L 109.167969 17.929688 L 109.167969 21.640625 L 110.5 21.640625 L 110.5 16.148438 L 109.175781 16.148438 Z M 107.597656 18.289062 " fill-opacity="1" fill-rule="nonzero"/><path fill="#003da0" d="M 112.886719 16.148438 L 111.550781 16.148438 L 111.550781 21.640625 L 115.277344 21.640625 L 115.277344 20.59375 L 112.886719 20.59375 Z M 112.886719 16.148438 " fill-opacity="1" fill-rule="nonzero"/><path fill="#003da0" d="M 115.929688 21.640625 L 119.695312 21.640625 L 119.695312 20.613281 L 117.261719 20.613281 L 117.261719 19.410156 L 119.371094 19.410156 L 119.371094 18.371094 L 117.261719 18.371094 L 117.261719 17.179688 L 119.695312 17.179688 L 119.695312 16.148438 L 115.929688 16.148438 Z M 115.929688 21.640625 " fill-opacity="1" fill-rule="nonzero"/><path fill="#003da0" d="M 124.351562 19.492188 C 124.554688 19.4375 124.734375 19.34375 124.890625 19.207031 C 125.085938 19.042969 125.230469 18.839844 125.328125 18.605469 C 125.425781 18.378906 125.476562 18.140625 125.476562 17.894531 C 125.476562 17.304688 125.308594 16.867188 124.949219 16.578125 C 124.589844 16.292969 124.105469 16.148438 123.492188 16.148438 L 120.8125 16.148438 L 120.8125 21.640625 L 122.144531 21.640625 L 122.144531 19.746094 L 122.96875 19.746094 L 124.054688 21.640625 L 125.753906 21.640625 Z M 123.828125 18.578125 C 123.667969 18.714844 123.480469 18.777344 123.269531 18.769531 L 122.144531 18.769531 L 122.144531 17.179688 L 123.324219 17.179688 C 123.53125 17.164062 123.703125 17.230469 123.851562 17.375 C 123.976562 17.554688 124.039062 17.757812 124.035156 17.980469 C 124.03125 18.199219 123.964844 18.398438 123.828125 18.578125 Z M 123.828125 18.578125 " fill-opacity="1" fill-rule="nonzero"/><path fill="#003da0" d="M 36.355469 30.953125 C 35.511719 30.953125 34.875 30.773438 34.453125 30.410156 C 34.03125 30.050781 33.824219 29.488281 33.824219 28.726562 L 33.824219 25.273438 L 35.21875 25.273438 L 35.21875 28.664062 C 35.21875 29.089844 35.304688 29.402344 35.472656 29.605469 C 35.644531 29.808594 35.917969 29.910156 36.292969 29.914062 C 36.601562 29.929688 36.867188 29.828125 37.085938 29.605469 C 37.277344 29.402344 37.371094 29.089844 37.371094 28.664062 L 37.371094 25.273438 L 38.644531 25.273438 L 38.644531 28.722656 C 38.660156 29.171875 38.5625 29.589844 38.351562 29.980469 C 38.160156 30.3125 37.890625 30.554688 37.546875 30.714844 C 37.167969 30.882812 36.769531 30.960938 36.355469 30.953125 Z M 34.921875 24.917969 L 34.921875 24.089844 L 35.976562 24.089844 L 35.976562 24.917969 Z M 36.4375 24.917969 L 36.4375 24.089844 L 37.503906 24.089844 L 37.503906 24.917969 Z M 36.4375 24.917969 " fill-opacity="1" fill-rule="nonzero"/><path fill="#003da0" d="M 39.734375 30.78125 L 39.734375 25.273438 L 40.875 25.273438 L 43.703125 29.085938 L 43.308594 29.910156 L 43.308594 25.273438 L 44.539062 25.273438 L 44.539062 30.78125 L 43.527344 30.78125 L 40.644531 27.015625 L 40.960938 26.410156 L 40.960938 30.78125 Z M 39.734375 30.78125 " fill-opacity="1" fill-rule="nonzero"/><path fill="#003da0" d="M 45.628906 30.78125 L 45.628906 25.273438 L 46.964844 25.273438 L 46.964844 30.78125 Z M 45.75 25.027344 L 45.75 24.195312 L 46.761719 24.195312 L 46.761719 25.023438 Z M 45.75 25.027344 " fill-opacity="1" fill-rule="nonzero"/><path fill="#003da0" d="M 49.632812 30.78125 L 47.578125 25.273438 L 49.121094 25.273438 L 50.679688 29.953125 L 50.242188 29.953125 L 51.792969 25.28125 L 53.214844 25.273438 L 51.058594 30.78125 Z M 49.632812 30.78125 " fill-opacity="1" fill-rule="nonzero"/><path fill="#003da0" d="M 53.824219 30.78125 L 53.824219 25.273438 L 57.597656 25.273438 L 57.597656 26.304688 L 55.164062 26.304688 L 55.164062 27.503906 L 57.277344 27.503906 L 57.277344 28.542969 L 55.164062 28.542969 L 55.164062 29.746094 L 57.597656 29.746094 L 57.597656 30.78125 Z M 53.824219 30.78125 " fill-opacity="1" fill-rule="nonzero"/><path fill="#003da0" d="M 58.636719 30.78125 L 58.636719 25.273438 L 61.320312 25.273438 C 61.941406 25.273438 62.429688 25.417969 62.78125 25.707031 C 63.132812 25.996094 63.3125 26.433594 63.3125 27.023438 C 63.308594 27.269531 63.261719 27.507812 63.164062 27.738281 C 63.0625 27.972656 62.917969 28.171875 62.722656 28.339844 C 62.511719 28.519531 62.269531 28.625 61.996094 28.664062 L 61.914062 28.210938 L 63.589844 30.78125 L 61.890625 30.78125 L 60.511719 28.378906 L 61.105469 28.882812 L 59.972656 28.882812 L 59.972656 30.78125 Z M 59.972656 27.90625 L 61.097656 27.90625 C 61.308594 27.917969 61.496094 27.851562 61.660156 27.714844 C 61.792969 27.539062 61.863281 27.335938 61.867188 27.117188 C 61.871094 26.894531 61.808594 26.691406 61.679688 26.507812 C 61.535156 26.367188 61.359375 26.300781 61.15625 26.3125 L 59.976562 26.3125 Z M 59.972656 27.90625 " fill-opacity="1" fill-rule="nonzero"/><path fill="#003da0" d="M 66.257812 30.894531 C 66.003906 30.894531 65.75 30.882812 65.496094 30.855469 C 65.285156 30.828125 65.074219 30.785156 64.871094 30.730469 C 64.675781 30.675781 64.488281 30.601562 64.308594 30.515625 L 64.308594 29.242188 C 64.566406 29.449219 64.851562 29.605469 65.167969 29.707031 C 65.460938 29.804688 65.765625 29.859375 66.074219 29.863281 C 66.285156 29.875 66.476562 29.828125 66.65625 29.71875 C 66.804688 29.609375 66.871094 29.460938 66.859375 29.277344 C 66.867188 29.125 66.804688 29.003906 66.679688 28.917969 C 66.53125 28.8125 66.367188 28.730469 66.191406 28.675781 L 65.503906 28.441406 C 65.34375 28.390625 65.183594 28.328125 65.035156 28.25 C 64.878906 28.175781 64.742188 28.078125 64.621094 27.960938 C 64.496094 27.832031 64.398438 27.6875 64.332031 27.527344 C 64.253906 27.324219 64.21875 27.113281 64.222656 26.898438 C 64.222656 26.671875 64.265625 26.457031 64.347656 26.246094 C 64.4375 26.03125 64.5625 25.84375 64.730469 25.683594 C 64.929688 25.503906 65.152344 25.375 65.40625 25.292969 C 65.714844 25.1875 66.03125 25.140625 66.355469 25.148438 C 66.554688 25.144531 66.753906 25.160156 66.953125 25.1875 C 67.125 25.214844 67.292969 25.253906 67.460938 25.308594 C 67.628906 25.363281 67.789062 25.429688 67.945312 25.511719 L 67.945312 26.800781 C 67.8125 26.691406 67.671875 26.59375 67.523438 26.503906 C 67.363281 26.414062 67.199219 26.339844 67.03125 26.277344 C 66.855469 26.21875 66.675781 26.183594 66.492188 26.179688 C 66.339844 26.171875 66.1875 26.1875 66.039062 26.230469 C 65.914062 26.257812 65.808594 26.320312 65.71875 26.414062 C 65.636719 26.507812 65.597656 26.617188 65.601562 26.738281 C 65.59375 26.882812 65.640625 27.003906 65.742188 27.105469 C 65.859375 27.203125 65.988281 27.277344 66.132812 27.324219 C 66.300781 27.378906 66.480469 27.441406 66.683594 27.507812 C 66.894531 27.570312 67.101562 27.640625 67.304688 27.726562 C 67.492188 27.800781 67.660156 27.902344 67.8125 28.027344 C 67.960938 28.152344 68.070312 28.300781 68.148438 28.476562 C 68.230469 28.679688 68.269531 28.890625 68.265625 29.109375 C 68.265625 29.433594 68.191406 29.734375 68.03125 30.015625 C 67.871094 30.296875 67.648438 30.511719 67.359375 30.65625 C 67.011719 30.832031 66.644531 30.910156 66.257812 30.894531 Z M 66.257812 30.894531 " fill-opacity="1" fill-rule="nonzero"/><path fill="#003da0" d="M 69.089844 30.78125 L 69.089844 25.273438 L 70.425781 25.273438 L 70.425781 30.78125 Z M 69.214844 25.027344 L 69.214844 24.195312 L 70.222656 24.195312 L 70.222656 25.023438 Z M 69.214844 25.027344 " fill-opacity="1" fill-rule="nonzero"/><path fill="#003da0" d="M 72.671875 30.78125 L 72.671875 26.304688 L 71.128906 26.304688 L 71.128906 25.273438 L 75.578125 25.273438 L 75.578125 26.304688 L 74.007812 26.304688 L 74.007812 30.78125 Z M 72.671875 30.78125 " fill-opacity="1" fill-rule="nonzero"/><path fill="#003da0" d="M 76.277344 30.78125 L 76.277344 25.273438 L 80.050781 25.273438 L 80.050781 26.304688 L 77.617188 26.304688 L 77.617188 27.503906 L 79.730469 27.503906 L 79.730469 28.542969 L 77.617188 28.542969 L 77.617188 29.746094 L 80.050781 29.746094 L 80.050781 30.78125 Z M 76.277344 30.78125 " fill-opacity="1" fill-rule="nonzero"/><path fill="#003da0" d="M 82.941406 30.894531 C 82.6875 30.894531 82.433594 30.882812 82.179688 30.855469 C 81.96875 30.828125 81.757812 30.785156 81.554688 30.730469 C 81.359375 30.675781 81.171875 30.601562 80.992188 30.515625 L 80.992188 29.242188 C 81.25 29.449219 81.535156 29.605469 81.851562 29.707031 C 82.144531 29.804688 82.449219 29.859375 82.757812 29.863281 C 82.96875 29.875 83.160156 29.828125 83.339844 29.71875 C 83.488281 29.609375 83.554688 29.460938 83.542969 29.277344 C 83.546875 29.125 83.484375 29.003906 83.355469 28.917969 C 83.207031 28.8125 83.042969 28.734375 82.867188 28.679688 L 82.179688 28.441406 C 82.019531 28.390625 81.863281 28.328125 81.710938 28.253906 C 81.558594 28.175781 81.417969 28.078125 81.296875 27.960938 C 81.171875 27.835938 81.074219 27.691406 81.007812 27.527344 C 80.929688 27.324219 80.894531 27.117188 80.902344 26.898438 C 80.902344 26.671875 80.941406 26.457031 81.027344 26.246094 C 81.113281 26.03125 81.242188 25.84375 81.410156 25.6875 C 81.601562 25.507812 81.824219 25.375 82.074219 25.292969 C 82.382812 25.191406 82.699219 25.140625 83.023438 25.148438 C 83.222656 25.148438 83.421875 25.160156 83.621094 25.191406 C 83.792969 25.21875 83.960938 25.257812 84.128906 25.308594 C 84.296875 25.367188 84.457031 25.433594 84.613281 25.511719 L 84.613281 26.800781 C 84.480469 26.691406 84.339844 26.59375 84.191406 26.507812 C 84.03125 26.417969 83.867188 26.339844 83.699219 26.28125 C 83.523438 26.21875 83.34375 26.1875 83.160156 26.179688 C 83.007812 26.175781 82.855469 26.191406 82.707031 26.230469 C 82.582031 26.261719 82.476562 26.324219 82.386719 26.417969 C 82.304688 26.507812 82.265625 26.617188 82.269531 26.742188 C 82.261719 26.882812 82.308594 27.007812 82.410156 27.105469 C 82.527344 27.207031 82.65625 27.277344 82.800781 27.324219 C 82.96875 27.382812 83.148438 27.445312 83.351562 27.511719 C 83.5625 27.570312 83.769531 27.644531 83.972656 27.726562 C 84.160156 27.804688 84.328125 27.902344 84.480469 28.03125 C 84.628906 28.152344 84.738281 28.300781 84.816406 28.476562 C 84.898438 28.679688 84.9375 28.890625 84.933594 29.113281 C 84.933594 29.433594 84.859375 29.734375 84.699219 30.015625 C 84.539062 30.296875 84.316406 30.511719 84.027344 30.660156 C 83.683594 30.832031 83.324219 30.910156 82.941406 30.894531 Z M 82.941406 30.894531 " fill-opacity="1" fill-rule="nonzero"/><path fill="#003da0" d="M 85.769531 30.78125 L 85.769531 25.273438 L 87.109375 25.273438 L 87.109375 30.78125 Z M 85.894531 25.027344 L 85.894531 24.195312 L 86.90625 24.195312 L 86.90625 25.023438 Z M 85.894531 25.027344 " fill-opacity="1" fill-rule="nonzero"/><path fill="#1e9956" d="M 26.277344 4.230469 L 26.242188 4.230469 L 26.128906 4.277344 L 26.113281 4.277344 L 25.8125 4.390625 L 25.644531 4.453125 L 25.328125 4.578125 L 25.175781 4.640625 L 24.859375 4.773438 L 24.710938 4.835938 L 24.394531 4.96875 L 24.246094 5.03125 L 23.921875 5.179688 L 23.789062 5.238281 L 23.449219 5.394531 L 23.328125 5.453125 L 22.878906 5.671875 C 22.730469 5.75 22.578125 5.824219 22.429688 5.90625 C 20.632812 6.839844 18.960938 7.960938 17.421875 9.277344 C 15.878906 7.960938 14.210938 6.839844 12.410156 5.90625 C 12.261719 5.824219 12.113281 5.75 11.960938 5.671875 L 11.511719 5.453125 L 11.386719 5.394531 L 11.050781 5.238281 L 10.914062 5.179688 L 10.589844 5.03125 L 10.441406 4.96875 L 10.128906 4.835938 L 9.980469 4.773438 L 9.660156 4.640625 L 9.511719 4.578125 L 9.191406 4.453125 L 9.023438 4.390625 L 8.722656 4.277344 L 8.710938 4.277344 L 8.597656 4.230469 L 8.5625 4.230469 C 8.277344 4.34375 7.96875 4.472656 7.636719 4.621094 L 8.347656 4.859375 C 9.777344 5.328125 11.160156 5.90625 12.5 6.59375 C 14.007812 7.363281 15.394531 8.300781 16.671875 9.410156 C 16.917969 9.628906 17.160156 9.847656 17.394531 10.085938 L 17.410156 10.097656 L 17.425781 10.085938 C 17.660156 9.855469 17.902344 9.632812 18.148438 9.410156 C 19.429688 8.300781 20.828125 7.363281 22.34375 6.59375 C 23.683594 5.90625 25.066406 5.328125 26.5 4.859375 L 27.207031 4.621094 C 26.871094 4.472656 26.558594 4.34375 26.277344 4.230469 Z M 26.277344 4.230469 " fill-opacity="1" fill-rule="nonzero"/><path fill="#003da0" d="M 29.800781 7.285156 C 29.644531 7.359375 29.492188 7.433594 29.339844 7.507812 C 29.1875 7.585938 29.027344 7.679688 28.875 7.761719 L 28.78125 7.816406 C 28.699219 7.859375 28.621094 7.90625 28.542969 7.953125 L 28.304688 8.097656 C 27.398438 8.652344 26.582031 9.320312 25.863281 10.101562 C 24.964844 11.085938 24.328125 12.214844 23.957031 13.496094 C 23.601562 14.765625 23.472656 16.058594 23.578125 17.371094 C 23.660156 18.613281 23.859375 19.839844 24.171875 21.042969 C 24.476562 22.222656 24.800781 23.402344 25.097656 24.582031 C 25.40625 25.796875 25.648438 27.015625 25.605469 28.277344 C 25.566406 29.472656 25.234375 30.582031 24.605469 31.597656 C 23.960938 32.65625 23.089844 33.515625 22.152344 34.296875 C 22.851562 34.042969 23.523438 33.738281 24.175781 33.378906 L 24.183594 33.378906 C 24.371094 33.277344 24.550781 33.171875 24.726562 33.0625 L 24.839844 32.992188 C 25.714844 32.445312 26.507812 31.800781 27.214844 31.050781 C 27.542969 30.683594 27.824219 30.28125 28.058594 29.847656 C 28.707031 28.632812 28.820312 27.320312 28.71875 25.980469 C 28.605469 24.828125 28.398438 23.6875 28.101562 22.566406 C 27.628906 20.636719 27.089844 18.71875 26.832031 16.746094 C 26.664062 15.574219 26.644531 14.402344 26.773438 13.226562 C 26.902344 12.136719 27.21875 11.101562 27.730469 10.128906 C 28.242188 9.15625 28.910156 8.308594 29.738281 7.582031 C 29.914062 7.421875 30.097656 7.265625 30.285156 7.097656 C 30.121094 7.152344 29.957031 7.214844 29.800781 7.285156 Z M 29.800781 7.285156 " fill-opacity="1" fill-rule="nonzero"/><path fill="#1e9956" d="M 22.90625 33 C 23.234375 32.632812 23.515625 32.230469 23.75 31.796875 C 24.398438 30.582031 24.511719 29.265625 24.40625 27.929688 C 24.296875 26.773438 24.089844 25.636719 23.792969 24.515625 C 23.320312 22.585938 22.78125 20.667969 22.523438 18.695312 C 22.355469 17.523438 22.332031 16.351562 22.464844 15.175781 C 22.589844 14.085938 22.910156 13.050781 23.417969 12.078125 C 23.929688 11.101562 24.597656 10.253906 25.425781 9.527344 C 25.59375 9.367188 25.78125 9.210938 25.972656 9.042969 C 25.808594 9.097656 25.644531 9.160156 25.488281 9.234375 C 25.335938 9.308594 25.179688 9.382812 25.03125 9.457031 C 24.878906 9.535156 24.71875 9.628906 24.566406 9.710938 L 24.46875 9.765625 C 24.390625 9.808594 24.308594 9.855469 24.234375 9.902344 C 24.15625 9.949219 24.0625 10 23.996094 10.046875 C 23.085938 10.601562 22.269531 11.273438 21.550781 12.058594 C 20.65625 13.039062 20.019531 14.167969 19.644531 15.445312 C 19.292969 16.71875 19.164062 18.007812 19.269531 19.324219 C 19.351562 20.566406 19.550781 21.789062 19.863281 22.996094 C 20.167969 24.175781 20.488281 25.355469 20.789062 26.535156 C 21.097656 27.75 21.339844 28.96875 21.296875 30.230469 C 21.257812 31.425781 20.925781 32.53125 20.296875 33.550781 C 19.652344 34.609375 18.78125 35.46875 17.84375 36.25 C 18.542969 36 19.214844 35.695312 19.867188 35.335938 C 20.054688 35.230469 20.234375 35.125 20.40625 35.019531 L 20.523438 34.945312 C 21.402344 34.398438 22.195312 33.75 22.90625 33 Z M 22.90625 33 " fill-opacity="1" fill-rule="nonzero"/><path fill="#003da0" d="M 10.25 31.59375 C 9.621094 30.574219 9.289062 29.46875 9.253906 28.273438 C 9.207031 27.011719 9.449219 25.789062 9.757812 24.578125 C 10.058594 23.398438 10.382812 22.21875 10.683594 21.039062 C 11 19.832031 11.199219 18.609375 11.28125 17.367188 C 11.382812 16.050781 11.257812 14.757812 10.902344 13.488281 C 10.527344 12.210938 9.890625 11.082031 8.992188 10.101562 C 8.273438 9.320312 7.457031 8.652344 6.550781 8.097656 L 6.3125 7.953125 C 6.234375 7.90625 6.152344 7.859375 6.074219 7.816406 L 5.976562 7.761719 C 5.824219 7.675781 5.667969 7.59375 5.511719 7.507812 C 5.355469 7.425781 5.210938 7.359375 5.054688 7.285156 C 4.898438 7.214844 4.734375 7.148438 4.570312 7.09375 C 4.761719 7.261719 4.941406 7.421875 5.117188 7.582031 C 5.945312 8.304688 6.613281 9.152344 7.125 10.125 C 7.636719 11.101562 7.957031 12.132812 8.082031 13.226562 C 8.210938 14.398438 8.191406 15.570312 8.023438 16.742188 C 7.761719 18.71875 7.226562 20.632812 6.753906 22.5625 C 6.457031 23.683594 6.25 24.824219 6.136719 25.976562 C 6.035156 27.328125 6.148438 28.628906 6.796875 29.84375 C 7.03125 30.277344 7.3125 30.679688 7.640625 31.050781 C 8.347656 31.796875 9.140625 32.441406 10.015625 32.988281 L 10.128906 33.058594 C 10.300781 33.167969 10.484375 33.273438 10.671875 33.378906 L 10.679688 33.378906 C 11.328125 33.738281 12.003906 34.042969 12.703125 34.292969 C 11.761719 33.511719 10.894531 32.652344 10.25 31.59375 Z M 10.25 31.59375 " fill-opacity="1" fill-rule="nonzero"/><path fill="#1e9956" d="M 14.5625 33.546875 C 13.933594 32.527344 13.601562 31.421875 13.5625 30.226562 C 13.515625 28.964844 13.757812 27.742188 14.070312 26.53125 C 14.367188 25.351562 14.691406 24.171875 14.992188 22.992188 C 15.308594 21.785156 15.507812 20.5625 15.589844 19.320312 C 15.691406 18.003906 15.566406 16.710938 15.210938 15.441406 C 14.835938 14.164062 14.199219 13.039062 13.300781 12.058594 C 12.582031 11.273438 11.769531 10.605469 10.859375 10.054688 L 10.621094 9.910156 C 10.542969 9.863281 10.464844 9.816406 10.386719 9.773438 L 10.289062 9.714844 C 10.136719 9.628906 9.980469 9.546875 9.824219 9.464844 C 9.671875 9.382812 9.519531 9.316406 9.367188 9.242188 C 9.207031 9.167969 9.046875 9.105469 8.882812 9.050781 C 9.070312 9.21875 9.253906 9.375 9.429688 9.535156 C 10.253906 10.261719 10.925781 11.109375 11.4375 12.082031 C 11.949219 13.054688 12.269531 14.085938 12.394531 15.175781 C 12.527344 16.351562 12.503906 17.523438 12.332031 18.695312 C 12.074219 20.667969 11.539062 22.585938 11.066406 24.515625 C 10.769531 25.636719 10.5625 26.773438 10.449219 27.929688 C 10.347656 29.277344 10.460938 30.582031 11.109375 31.796875 C 11.34375 32.230469 11.625 32.632812 11.953125 33 C 12.660156 33.75 13.453125 34.394531 14.328125 34.941406 L 14.441406 35.011719 C 14.613281 35.117188 14.796875 35.226562 14.984375 35.328125 L 14.992188 35.328125 C 15.640625 35.6875 16.316406 35.992188 17.015625 36.242188 C 16.070312 35.460938 15.207031 34.605469 14.5625 33.546875 Z M 14.5625 33.546875 " fill-opacity="1" fill-rule="nonzero"/><path fill="#003da0" d="M 23.644531 8.195312 C 25.5 7.328125 27.433594 6.699219 29.441406 6.300781 C 29.707031 6.246094 29.980469 6.191406 30.285156 6.132812 C 29.949219 5.949219 29.621094 5.78125 29.3125 5.625 C 29.019531 5.695312 28.722656 5.761719 28.429688 5.832031 C 26.511719 6.285156 24.667969 6.941406 22.898438 7.804688 C 21.796875 8.347656 20.75 8.988281 19.765625 9.722656 C 18.941406 10.339844 17.433594 11.660156 17.433594 11.660156 C 17.433594 11.660156 15.921875 10.335938 15.097656 9.722656 C 14.113281 8.988281 13.070312 8.347656 11.964844 7.804688 C 10.195312 6.941406 8.351562 6.285156 6.433594 5.832031 C 6.140625 5.761719 5.847656 5.695312 5.550781 5.625 C 5.242188 5.785156 4.917969 5.964844 4.578125 6.132812 C 4.878906 6.191406 5.152344 6.242188 5.421875 6.300781 C 7.429688 6.699219 9.359375 7.332031 11.214844 8.195312 C 13.109375 9.101562 14.84375 10.246094 16.414062 11.636719 C 16.730469 11.917969 17.105469 12.257812 17.414062 12.5625 L 17.429688 12.578125 L 17.445312 12.5625 C 17.753906 12.257812 18.132812 11.917969 18.445312 11.636719 C 20.019531 10.246094 21.75 9.101562 23.644531 8.195312 Z M 23.644531 8.195312 " fill-opacity="1" fill-rule="nonzero"/><path fill="#23428f" d="M 8.722656 4.261719 L 8.613281 4.21875 L 8.726562 4.261719 Z M 8.722656 4.261719 " fill-opacity="1" fill-rule="nonzero"/><path fill="#003da0" d="M 15.261719 6.378906 C 15.90625 6.816406 16.742188 7.441406 17.40625 7.964844 L 17.421875 7.976562 L 17.433594 7.964844 C 18.097656 7.441406 18.9375 6.816406 19.578125 6.378906 C 20.851562 5.515625 22.1875 4.753906 23.578125 4.097656 L 24.566406 3.632812 C 24.5 3.609375 23.691406 3.410156 23.535156 3.378906 L 23.523438 3.378906 L 23.472656 3.398438 L 22.902344 3.65625 L 22.621094 3.792969 C 22.527344 3.839844 22.429688 3.886719 22.332031 3.933594 C 22.238281 3.984375 22.136719 4.035156 22.035156 4.085938 C 21.9375 4.140625 21.859375 4.175781 21.769531 4.222656 C 21.585938 4.320312 21.402344 4.421875 21.21875 4.527344 C 19.949219 5.242188 17.726562 6.964844 17.457031 7.175781 L 17.433594 7.191406 L 17.414062 7.175781 C 17.144531 6.964844 14.921875 5.242188 13.652344 4.527344 C 13.46875 4.421875 13.285156 4.320312 13.097656 4.222656 C 13.011719 4.175781 12.921875 4.132812 12.835938 4.085938 C 12.746094 4.042969 12.636719 3.984375 12.539062 3.933594 C 12.4375 3.886719 12.34375 3.839844 12.246094 3.792969 L 11.972656 3.65625 L 11.683594 3.527344 L 11.398438 3.398438 L 11.390625 3.398438 L 11.339844 3.378906 L 11.328125 3.378906 C 11.171875 3.410156 10.363281 3.609375 10.292969 3.632812 L 11.285156 4.097656 C 12.667969 4.753906 13.996094 5.515625 15.261719 6.378906 Z M 15.261719 6.378906 " fill-opacity="1" fill-rule="nonzero"/></svg>