<svg xmlns="http://www.w3.org/2000/svg" xmlns:xlink="http://www.w3.org/1999/xlink" width="100" zoomAndPan="magnify" viewBox="0 0 75 30.000001" height="40" preserveAspectRatio="xMidYMid meet" version="1.0"><path fill="#003da0" d="M 20.167969 10.1875 C 20.300781 10.203125 20.4375 10.214844 20.574219 10.210938 C 20.789062 10.222656 20.992188 10.175781 21.183594 10.082031 C 21.332031 10 21.445312 9.886719 21.527344 9.738281 C 21.601562 9.597656 21.636719 9.445312 21.636719 9.285156 C 21.640625 9.15625 21.613281 9.035156 21.558594 8.921875 C 21.507812 8.824219 21.441406 8.742188 21.359375 8.671875 C 21.269531 8.601562 21.175781 8.546875 21.074219 8.503906 C 20.964844 8.457031 20.855469 8.414062 20.738281 8.378906 C 20.609375 8.339844 20.496094 8.296875 20.398438 8.257812 C 20.308594 8.222656 20.230469 8.167969 20.167969 8.097656 C 20.109375 8.023438 20.082031 7.9375 20.085938 7.839844 C 20.085938 7.761719 20.109375 7.691406 20.152344 7.628906 C 20.199219 7.5625 20.261719 7.515625 20.339844 7.484375 C 20.445312 7.449219 20.550781 7.433594 20.660156 7.4375 C 20.765625 7.441406 20.867188 7.457031 20.96875 7.484375 C 21.058594 7.511719 21.144531 7.546875 21.226562 7.589844 C 21.304688 7.632812 21.382812 7.679688 21.460938 7.730469 L 21.460938 7.230469 C 21.367188 7.183594 21.277344 7.144531 21.195312 7.113281 C 21.109375 7.078125 21.023438 7.054688 20.9375 7.039062 C 20.828125 7.023438 20.722656 7.015625 20.613281 7.015625 C 20.449219 7.011719 20.285156 7.039062 20.128906 7.09375 C 20.007812 7.136719 19.898438 7.207031 19.804688 7.296875 C 19.539062 7.582031 19.484375 7.902344 19.632812 8.257812 C 19.675781 8.355469 19.738281 8.433594 19.820312 8.5 C 19.898438 8.566406 19.988281 8.617188 20.082031 8.660156 C 20.175781 8.699219 20.269531 8.738281 20.371094 8.777344 C 20.503906 8.824219 20.625 8.871094 20.738281 8.914062 C 20.839844 8.953125 20.933594 9.011719 21.011719 9.085938 C 21.085938 9.15625 21.121094 9.242188 21.117188 9.347656 C 21.125 9.476562 21.078125 9.585938 20.976562 9.671875 C 20.847656 9.761719 20.707031 9.800781 20.546875 9.789062 C 20.359375 9.792969 20.175781 9.757812 19.996094 9.695312 C 19.835938 9.640625 19.691406 9.5625 19.558594 9.457031 L 19.558594 9.96875 C 19.660156 10.019531 19.757812 10.0625 19.855469 10.101562 C 19.957031 10.140625 20.058594 10.171875 20.167969 10.1875 Z M 20.167969 10.1875 " fill-opacity="1" fill-rule="nonzero"/><path fill="#003da0" d="M 24.25 10.160156 L 24.792969 10.160156 L 23.621094 7.074219 L 23.078125 7.074219 L 21.875 10.160156 L 22.382812 10.160156 L 22.6875 9.324219 L 23.949219 9.324219 Z M 22.832031 8.90625 L 23.3125 7.578125 L 23.792969 8.90625 Z M 22.832031 8.90625 " fill-opacity="1" fill-rule="nonzero"/><path fill="#003da0" d="M 25.769531 9.15625 L 26.054688 8.84375 L 27.089844 10.160156 L 27.757812 10.160156 L 26.40625 8.457031 L 27.660156 7.074219 L 27.011719 7.074219 L 25.769531 8.570312 L 25.769531 7.074219 L 25.257812 7.074219 L 25.257812 10.160156 L 25.769531 10.160156 Z M 25.769531 9.15625 " fill-opacity="1" fill-rule="nonzero"/><path fill="#003da0" d="M 28.75 9.324219 L 30.011719 9.324219 L 30.316406 10.160156 L 30.855469 10.160156 L 29.683594 7.074219 L 29.140625 7.074219 L 27.9375 10.160156 L 28.445312 10.160156 Z M 29.378906 7.582031 L 29.859375 8.90625 L 28.898438 8.90625 Z M 29.378906 7.582031 " fill-opacity="1" fill-rule="nonzero"/><path fill="#003da0" d="M 31.824219 8.996094 L 32.476562 8.996094 L 33.199219 10.160156 L 33.835938 10.160156 L 33.007812 8.90625 C 33.113281 8.886719 33.210938 8.84375 33.300781 8.78125 C 33.425781 8.695312 33.523438 8.585938 33.585938 8.449219 C 33.652344 8.308594 33.683594 8.160156 33.679688 8.003906 C 33.679688 7.695312 33.59375 7.460938 33.421875 7.308594 C 33.25 7.152344 33.007812 7.074219 32.683594 7.074219 L 31.316406 7.074219 L 31.316406 10.160156 L 31.824219 10.160156 Z M 31.824219 7.503906 L 32.625 7.503906 C 32.816406 7.503906 32.953125 7.550781 33.03125 7.640625 C 33.117188 7.757812 33.15625 7.890625 33.148438 8.035156 C 33.160156 8.195312 33.113281 8.332031 33 8.441406 C 32.863281 8.546875 32.710938 8.589844 32.542969 8.578125 L 31.824219 8.578125 Z M 31.824219 7.503906 " fill-opacity="1" fill-rule="nonzero"/><path fill="#003da0" d="M 35.144531 10.160156 L 35.65625 10.160156 L 35.65625 8.78125 L 36.773438 7.074219 L 36.222656 7.074219 L 35.429688 8.355469 L 34.609375 7.074219 L 33.984375 7.074219 L 35.144531 8.777344 Z M 35.144531 10.160156 " fill-opacity="1" fill-rule="nonzero"/><path fill="#003da0" d="M 36.960938 10.160156 L 37.265625 9.324219 L 38.53125 9.324219 L 38.835938 10.160156 L 39.375 10.160156 L 38.203125 7.074219 L 37.660156 7.074219 L 36.457031 10.160156 Z M 37.894531 7.582031 L 38.375 8.90625 L 37.414062 8.90625 Z M 37.894531 7.582031 " fill-opacity="1" fill-rule="nonzero"/><path fill="#003da0" d="M 21.679688 14.085938 C 21.679688 14.320312 21.625 14.5 21.519531 14.613281 C 21.394531 14.738281 21.246094 14.792969 21.074219 14.785156 C 20.863281 14.785156 20.710938 14.726562 20.613281 14.613281 C 20.519531 14.5 20.46875 14.320312 20.46875 14.085938 L 20.46875 12.183594 L 19.6875 12.183594 L 19.6875 14.117188 C 19.6875 14.546875 19.804688 14.863281 20.042969 15.066406 C 20.277344 15.265625 20.632812 15.367188 21.109375 15.367188 C 21.339844 15.371094 21.5625 15.328125 21.773438 15.234375 C 21.964844 15.144531 22.117188 15.007812 22.222656 14.824219 C 22.34375 14.601562 22.398438 14.367188 22.386719 14.117188 L 22.386719 12.183594 L 21.675781 12.183594 Z M 21.679688 14.085938 " fill-opacity="1" fill-rule="nonzero"/><path fill="#003da0" d="M 24.4375 13.355469 L 23.738281 12.183594 L 22.816406 12.183594 L 23.988281 13.9375 L 23.988281 15.269531 L 24.738281 15.269531 L 24.738281 13.949219 L 25.816406 12.183594 L 25.074219 12.183594 Z M 24.4375 13.355469 " fill-opacity="1" fill-rule="nonzero"/><path fill="#003da0" d="M 26.644531 15.171875 C 26.894531 15.285156 27.160156 15.339844 27.4375 15.335938 C 27.652344 15.335938 27.867188 15.304688 28.074219 15.246094 C 28.285156 15.1875 28.484375 15.105469 28.675781 15 L 28.675781 13.546875 L 27.417969 13.546875 L 27.417969 14.132812 L 27.925781 14.132812 L 27.925781 14.679688 C 27.867188 14.707031 27.804688 14.726562 27.738281 14.734375 C 27.660156 14.746094 27.582031 14.753906 27.503906 14.75 C 27.355469 14.757812 27.214844 14.726562 27.082031 14.65625 C 26.949219 14.582031 26.855469 14.476562 26.796875 14.335938 C 26.722656 14.140625 26.691406 13.9375 26.703125 13.726562 C 26.691406 13.515625 26.726562 13.3125 26.796875 13.113281 C 26.851562 12.972656 26.945312 12.867188 27.082031 12.796875 C 27.226562 12.730469 27.375 12.699219 27.535156 12.703125 C 27.703125 12.699219 27.867188 12.730469 28.027344 12.789062 C 28.203125 12.855469 28.375 12.933594 28.542969 13.019531 L 28.542969 12.339844 C 28.371094 12.269531 28.191406 12.210938 28.011719 12.171875 C 27.824219 12.132812 27.632812 12.113281 27.441406 12.113281 C 27.164062 12.105469 26.898438 12.164062 26.648438 12.28125 C 26.414062 12.398438 26.238281 12.574219 26.121094 12.808594 C 25.859375 13.425781 25.859375 14.042969 26.121094 14.65625 C 26.238281 14.886719 26.410156 15.058594 26.644531 15.171875 Z M 26.644531 15.171875 " fill-opacity="1" fill-rule="nonzero"/><path fill="#003da0" d="M 31.804688 14.824219 C 31.925781 14.601562 31.980469 14.367188 31.96875 14.117188 L 31.96875 12.183594 L 31.253906 12.183594 L 31.253906 14.085938 C 31.253906 14.320312 31.203125 14.5 31.097656 14.613281 C 30.972656 14.738281 30.824219 14.792969 30.648438 14.785156 C 30.4375 14.785156 30.285156 14.726562 30.191406 14.613281 C 30.09375 14.496094 30.046875 14.324219 30.046875 14.085938 L 30.046875 12.183594 L 29.265625 12.183594 L 29.265625 14.117188 C 29.265625 14.546875 29.382812 14.863281 29.617188 15.066406 C 29.855469 15.265625 30.210938 15.367188 30.6875 15.367188 C 30.917969 15.371094 31.136719 15.328125 31.347656 15.234375 C 31.542969 15.144531 31.695312 15.007812 31.804688 14.824219 Z M 31.804688 14.824219 " fill-opacity="1" fill-rule="nonzero"/><path fill="#003da0" d="M 32.628906 12.183594 L 32.628906 15.269531 L 34.722656 15.269531 L 34.722656 14.683594 L 33.378906 14.683594 L 33.378906 12.183594 Z M 32.628906 12.183594 " fill-opacity="1" fill-rule="nonzero"/><path fill="#003da0" d="M 36.097656 12.183594 L 34.929688 15.269531 L 35.640625 15.269531 L 35.859375 14.605469 L 37.015625 14.605469 L 37.242188 15.269531 L 38.011719 15.269531 L 36.921875 12.183594 Z M 36.046875 14.050781 L 36.433594 12.886719 L 36.824219 14.050781 Z M 36.046875 14.050781 " fill-opacity="1" fill-rule="nonzero"/><path fill="#003da0" d="M 39.210938 13.183594 L 40.09375 14.390625 L 41 13.183594 L 41 15.269531 L 41.75 15.269531 L 41.75 12.183594 L 41.003906 12.183594 L 40.121094 13.386719 L 39.253906 12.183594 L 38.492188 12.183594 L 38.492188 15.269531 L 39.210938 15.269531 Z M 39.210938 13.183594 " fill-opacity="1" fill-rule="nonzero"/><path fill="#003da0" d="M 43.308594 12.183594 L 42.140625 15.269531 L 42.847656 15.269531 L 43.070312 14.605469 L 44.226562 14.605469 L 44.449219 15.269531 L 45.21875 15.269531 L 44.121094 12.183594 Z M 43.253906 14.050781 L 43.644531 12.886719 L 44.039062 14.050781 Z M 43.253906 14.050781 " fill-opacity="1" fill-rule="nonzero"/><path fill="#003da0" d="M 46.449219 12.183594 L 45.699219 12.183594 L 45.699219 15.269531 L 47.792969 15.269531 L 47.792969 14.683594 L 46.449219 14.683594 Z M 46.449219 12.183594 " fill-opacity="1" fill-rule="nonzero"/><path fill="#003da0" d="M 48.246094 12.183594 L 48.996094 12.183594 L 48.996094 15.269531 L 48.246094 15.269531 Z M 48.246094 12.183594 " fill-opacity="1" fill-rule="nonzero"/><path fill="#003da0" d="M 53.328125 13.664062 C 53.285156 13.644531 53.242188 13.628906 53.195312 13.613281 L 53.230469 13.597656 C 53.328125 13.542969 53.410156 13.46875 53.476562 13.378906 C 53.550781 13.277344 53.585938 13.164062 53.578125 13.039062 C 53.589844 12.859375 53.542969 12.691406 53.441406 12.542969 C 53.339844 12.410156 53.210938 12.316406 53.054688 12.265625 C 52.863281 12.207031 52.667969 12.179688 52.46875 12.183594 L 51.15625 12.183594 L 51.15625 15.269531 L 52.59375 15.269531 C 52.792969 15.273438 52.984375 15.238281 53.167969 15.171875 C 53.335938 15.109375 53.472656 15.007812 53.582031 14.863281 C 53.695312 14.707031 53.746094 14.527344 53.738281 14.335938 C 53.742188 14.1875 53.703125 14.054688 53.628906 13.929688 C 53.550781 13.8125 53.453125 13.726562 53.328125 13.664062 Z M 51.90625 12.765625 L 52.460938 12.765625 C 52.550781 12.761719 52.636719 12.785156 52.710938 12.835938 C 52.832031 12.96875 52.851562 13.113281 52.769531 13.269531 C 52.742188 13.3125 52.703125 13.34375 52.65625 13.363281 C 52.609375 13.386719 52.558594 13.394531 52.507812 13.394531 L 51.90625 13.394531 Z M 52.90625 14.535156 C 52.867188 14.59375 52.8125 14.632812 52.75 14.65625 C 52.679688 14.679688 52.609375 14.691406 52.535156 14.691406 L 51.90625 14.691406 L 51.90625 13.945312 L 52.523438 13.945312 C 52.578125 13.945312 52.632812 13.953125 52.6875 13.964844 C 52.738281 13.976562 52.785156 13.996094 52.828125 14.023438 C 52.871094 14.050781 52.90625 14.085938 52.929688 14.132812 C 52.957031 14.1875 52.96875 14.246094 52.964844 14.308594 C 52.972656 14.390625 52.953125 14.464844 52.910156 14.535156 Z M 52.90625 14.535156 " fill-opacity="1" fill-rule="nonzero"/><path fill="#003da0" d="M 54.230469 12.183594 L 54.980469 12.183594 L 54.980469 15.269531 L 54.230469 15.269531 Z M 54.230469 12.183594 " fill-opacity="1" fill-rule="nonzero"/><path fill="#003da0" d="M 54.324219 11.582031 L 54.886719 11.582031 L 54.886719 12.042969 L 54.324219 12.042969 Z M 54.324219 11.582031 " fill-opacity="1" fill-rule="nonzero"/><path fill="#003da0" d="M 56.390625 12.183594 L 55.636719 12.183594 L 55.636719 15.269531 L 57.730469 15.269531 L 57.730469 14.683594 L 56.390625 14.683594 Z M 56.390625 12.183594 " fill-opacity="1" fill-rule="nonzero"/><path fill="#003da0" d="M 58.207031 12.183594 L 58.957031 12.183594 L 58.957031 15.269531 L 58.207031 15.269531 Z M 58.207031 12.183594 " fill-opacity="1" fill-rule="nonzero"/><path fill="#003da0" d="M 58.300781 11.582031 L 58.867188 11.582031 L 58.867188 12.042969 L 58.300781 12.042969 Z M 58.300781 11.582031 " fill-opacity="1" fill-rule="nonzero"/><path fill="#003da0" d="M 61.152344 13.386719 L 60.285156 12.183594 L 59.523438 12.183594 L 59.523438 15.269531 L 60.242188 15.269531 L 60.242188 13.183594 L 61.125 14.390625 L 62.03125 13.183594 L 62.03125 15.269531 L 62.78125 15.269531 L 62.78125 12.183594 L 62.039062 12.183594 Z M 61.152344 13.386719 " fill-opacity="1" fill-rule="nonzero"/><path fill="#003da0" d="M 64.125 12.183594 L 63.375 12.183594 L 63.375 15.269531 L 65.464844 15.269531 L 65.464844 14.683594 L 64.125 14.683594 Z M 64.125 12.183594 " fill-opacity="1" fill-rule="nonzero"/><path fill="#003da0" d="M 65.835938 15.269531 L 67.949219 15.269531 L 67.949219 14.691406 L 66.582031 14.691406 L 66.582031 14.015625 L 67.769531 14.015625 L 67.769531 13.433594 L 66.582031 13.433594 L 66.582031 12.761719 L 67.949219 12.761719 L 67.949219 12.183594 L 65.835938 12.183594 Z M 65.835938 15.269531 " fill-opacity="1" fill-rule="nonzero"/><path fill="#003da0" d="M 70.566406 14.0625 C 70.679688 14.03125 70.78125 13.976562 70.871094 13.902344 C 70.980469 13.808594 71.0625 13.695312 71.117188 13.5625 C 71.171875 13.4375 71.199219 13.300781 71.199219 13.164062 C 71.199219 12.832031 71.105469 12.585938 70.902344 12.425781 C 70.703125 12.261719 70.429688 12.183594 70.085938 12.183594 L 68.578125 12.183594 L 68.578125 15.269531 L 69.328125 15.269531 L 69.328125 14.203125 L 69.789062 14.203125 L 70.402344 15.269531 L 71.355469 15.269531 Z M 70.273438 13.546875 C 70.183594 13.625 70.078125 13.660156 69.960938 13.65625 L 69.328125 13.65625 L 69.328125 12.761719 L 69.992188 12.761719 C 70.105469 12.753906 70.203125 12.789062 70.285156 12.871094 C 70.445312 13.101562 70.441406 13.324219 70.273438 13.546875 Z M 70.273438 13.546875 " fill-opacity="1" fill-rule="nonzero"/><path fill="#003da0" d="M 21.109375 20.503906 C 20.632812 20.503906 20.277344 20.402344 20.039062 20.199219 C 19.800781 19.996094 19.683594 19.679688 19.683594 19.25 L 19.683594 17.3125 L 20.46875 17.3125 L 20.46875 19.21875 C 20.46875 19.457031 20.515625 19.632812 20.613281 19.746094 C 20.707031 19.859375 20.859375 19.917969 21.070312 19.917969 C 21.246094 19.929688 21.394531 19.871094 21.519531 19.746094 C 21.625 19.632812 21.679688 19.457031 21.679688 19.21875 L 21.679688 17.3125 L 22.394531 17.3125 L 22.394531 19.25 C 22.402344 19.5 22.347656 19.738281 22.230469 19.957031 C 22.121094 20.140625 21.96875 20.28125 21.777344 20.367188 C 21.5625 20.464844 21.339844 20.507812 21.109375 20.503906 Z M 20.300781 17.109375 L 20.300781 16.648438 L 20.894531 16.648438 L 20.894531 17.109375 Z M 21.152344 17.109375 L 21.152344 16.648438 L 21.753906 16.648438 L 21.753906 17.109375 Z M 21.152344 17.109375 " fill-opacity="1" fill-rule="nonzero"/><path fill="#003da0" d="M 23.007812 20.40625 L 23.007812 17.3125 L 23.648438 17.3125 L 25.238281 19.453125 L 25.015625 19.917969 L 25.015625 17.3125 L 25.707031 17.3125 L 25.707031 20.40625 L 25.136719 20.40625 L 23.519531 18.289062 L 23.695312 17.949219 L 23.695312 20.40625 Z M 23.007812 20.40625 " fill-opacity="1" fill-rule="nonzero"/><path fill="#003da0" d="M 26.320312 20.40625 L 26.320312 17.3125 L 27.070312 17.3125 L 27.070312 20.40625 Z M 26.386719 17.171875 L 26.386719 16.707031 L 26.957031 16.707031 L 26.957031 17.171875 Z M 26.386719 17.171875 " fill-opacity="1" fill-rule="nonzero"/><path fill="#003da0" d="M 28.570312 20.40625 L 27.414062 17.3125 L 28.28125 17.3125 L 29.160156 19.941406 L 28.914062 19.941406 L 29.785156 17.316406 L 30.582031 17.3125 L 29.371094 20.40625 Z M 28.570312 20.40625 " fill-opacity="1" fill-rule="nonzero"/><path fill="#003da0" d="M 30.925781 20.40625 L 30.925781 17.3125 L 33.046875 17.3125 L 33.046875 17.890625 L 31.679688 17.890625 L 31.679688 18.5625 L 32.867188 18.5625 L 32.867188 19.148438 L 31.679688 19.148438 L 31.679688 19.824219 L 33.046875 19.824219 L 33.046875 20.40625 Z M 30.925781 20.40625 " fill-opacity="1" fill-rule="nonzero"/><path fill="#003da0" d="M 33.632812 20.40625 L 33.632812 17.3125 L 35.140625 17.3125 C 35.488281 17.3125 35.761719 17.390625 35.960938 17.554688 C 36.160156 17.71875 36.257812 17.964844 36.257812 18.292969 C 36.257812 18.433594 36.230469 18.566406 36.175781 18.695312 C 36.117188 18.828125 36.035156 18.941406 35.929688 19.035156 C 35.808594 19.132812 35.671875 19.195312 35.519531 19.21875 L 35.472656 18.960938 L 36.414062 20.40625 L 35.460938 20.40625 L 34.683594 19.054688 L 35.019531 19.339844 L 34.382812 19.339844 L 34.382812 20.40625 Z M 34.382812 18.789062 L 35.015625 18.789062 C 35.132812 18.796875 35.238281 18.761719 35.328125 18.683594 C 35.5 18.460938 35.503906 18.234375 35.34375 18.003906 C 35.261719 17.925781 35.160156 17.886719 35.046875 17.894531 L 34.382812 17.894531 Z M 34.382812 18.789062 " fill-opacity="1" fill-rule="nonzero"/><path fill="#003da0" d="M 37.914062 20.46875 C 37.773438 20.472656 37.628906 20.464844 37.488281 20.449219 C 37.367188 20.433594 37.25 20.410156 37.136719 20.378906 C 37.027344 20.347656 36.921875 20.304688 36.820312 20.257812 L 36.820312 19.542969 C 36.964844 19.660156 37.125 19.746094 37.300781 19.800781 C 37.46875 19.859375 37.636719 19.886719 37.8125 19.890625 C 37.929688 19.898438 38.039062 19.871094 38.140625 19.808594 C 38.222656 19.746094 38.261719 19.664062 38.253906 19.5625 C 38.257812 19.476562 38.222656 19.40625 38.152344 19.359375 C 38.066406 19.300781 37.976562 19.253906 37.875 19.222656 L 37.492188 19.089844 C 37.398438 19.0625 37.3125 19.027344 37.226562 18.984375 C 37.140625 18.941406 37.0625 18.886719 36.996094 18.820312 C 36.925781 18.75 36.871094 18.667969 36.832031 18.578125 C 36.789062 18.464844 36.769531 18.34375 36.773438 18.222656 C 36.773438 18.097656 36.796875 17.976562 36.84375 17.859375 C 36.890625 17.738281 36.960938 17.632812 37.058594 17.542969 C 37.167969 17.441406 37.292969 17.367188 37.4375 17.320312 C 37.609375 17.265625 37.789062 17.238281 37.96875 17.238281 C 38.082031 17.238281 38.195312 17.246094 38.304688 17.265625 C 38.402344 17.277344 38.496094 17.300781 38.589844 17.332031 C 38.683594 17.363281 38.777344 17.398438 38.863281 17.445312 L 38.863281 18.167969 C 38.789062 18.105469 38.710938 18.050781 38.625 18.003906 C 38.539062 17.953125 38.445312 17.910156 38.347656 17.875 C 38.25 17.839844 38.152344 17.824219 38.046875 17.820312 C 37.960938 17.816406 37.875 17.824219 37.792969 17.847656 C 37.722656 17.867188 37.660156 17.898438 37.613281 17.953125 C 37.566406 18.003906 37.542969 18.066406 37.546875 18.136719 C 37.542969 18.214844 37.566406 18.285156 37.625 18.339844 C 37.691406 18.394531 37.761719 18.4375 37.84375 18.464844 C 37.9375 18.496094 38.039062 18.53125 38.15625 18.566406 C 38.273438 18.601562 38.390625 18.640625 38.503906 18.691406 C 38.609375 18.730469 38.703125 18.789062 38.789062 18.859375 C 38.871094 18.929688 38.933594 19.011719 38.976562 19.109375 C 39.023438 19.226562 39.046875 19.34375 39.042969 19.46875 C 39.042969 19.648438 39 19.816406 38.914062 19.976562 C 38.820312 20.132812 38.695312 20.253906 38.535156 20.335938 C 38.339844 20.4375 38.132812 20.480469 37.914062 20.46875 Z M 37.914062 20.46875 " fill-opacity="1" fill-rule="nonzero"/><path fill="#003da0" d="M 39.503906 20.40625 L 39.503906 17.3125 L 40.257812 17.3125 L 40.257812 20.40625 Z M 39.574219 17.171875 L 39.574219 16.707031 L 40.144531 16.707031 L 40.144531 17.171875 Z M 39.574219 17.171875 " fill-opacity="1" fill-rule="nonzero"/><path fill="#003da0" d="M 41.519531 20.40625 L 41.519531 17.890625 L 40.652344 17.890625 L 40.652344 17.3125 L 43.152344 17.3125 L 43.152344 17.890625 L 42.273438 17.890625 L 42.273438 20.40625 Z M 41.519531 20.40625 " fill-opacity="1" fill-rule="nonzero"/><path fill="#003da0" d="M 43.546875 20.40625 L 43.546875 17.3125 L 45.667969 17.3125 L 45.667969 17.890625 L 44.300781 17.890625 L 44.300781 18.5625 L 45.488281 18.5625 L 45.488281 19.148438 L 44.300781 19.148438 L 44.300781 19.824219 L 45.667969 19.824219 L 45.667969 20.40625 Z M 43.546875 20.40625 " fill-opacity="1" fill-rule="nonzero"/><path fill="#003da0" d="M 47.292969 20.46875 C 47.148438 20.472656 47.007812 20.464844 46.863281 20.449219 C 46.746094 20.433594 46.628906 20.410156 46.511719 20.378906 C 46.402344 20.347656 46.296875 20.304688 46.195312 20.257812 L 46.195312 19.542969 C 46.339844 19.660156 46.503906 19.746094 46.679688 19.800781 C 46.84375 19.859375 47.015625 19.886719 47.191406 19.890625 C 47.308594 19.898438 47.417969 19.871094 47.515625 19.808594 C 47.601562 19.746094 47.636719 19.664062 47.628906 19.5625 C 47.632812 19.476562 47.597656 19.40625 47.527344 19.359375 C 47.441406 19.300781 47.347656 19.253906 47.25 19.226562 L 46.863281 19.09375 C 46.773438 19.0625 46.683594 19.027344 46.601562 18.984375 C 46.515625 18.941406 46.4375 18.886719 46.367188 18.820312 C 46.296875 18.75 46.242188 18.671875 46.207031 18.578125 C 46.164062 18.464844 46.140625 18.347656 46.144531 18.226562 C 46.144531 18.097656 46.167969 17.976562 46.214844 17.859375 C 46.265625 17.738281 46.335938 17.632812 46.429688 17.542969 C 46.539062 17.441406 46.664062 17.371094 46.804688 17.324219 C 46.976562 17.265625 47.15625 17.238281 47.339844 17.242188 C 47.449219 17.242188 47.5625 17.25 47.675781 17.265625 C 47.769531 17.28125 47.867188 17.300781 47.960938 17.332031 C 48.054688 17.363281 48.144531 17.402344 48.234375 17.445312 L 48.234375 18.167969 C 48.15625 18.109375 48.078125 18.054688 47.992188 18.003906 C 47.90625 17.953125 47.8125 17.910156 47.71875 17.875 C 47.621094 17.84375 47.519531 17.824219 47.417969 17.820312 C 47.328125 17.816406 47.246094 17.828125 47.160156 17.847656 C 47.089844 17.867188 47.03125 17.902344 46.980469 17.953125 C 46.933594 18.007812 46.914062 18.066406 46.914062 18.136719 C 46.910156 18.21875 46.9375 18.285156 46.996094 18.339844 C 47.058594 18.398438 47.132812 18.4375 47.210938 18.464844 C 47.308594 18.496094 47.410156 18.53125 47.523438 18.570312 C 47.640625 18.601562 47.757812 18.644531 47.871094 18.691406 C 47.976562 18.734375 48.070312 18.789062 48.15625 18.859375 C 48.238281 18.929688 48.304688 19.011719 48.347656 19.113281 C 48.394531 19.226562 48.414062 19.34375 48.410156 19.46875 C 48.414062 19.648438 48.371094 19.820312 48.28125 19.976562 C 48.191406 20.136719 48.0625 20.253906 47.902344 20.339844 C 47.710938 20.433594 47.507812 20.480469 47.292969 20.46875 Z M 47.292969 20.46875 " fill-opacity="1" fill-rule="nonzero"/><path fill="#003da0" d="M 48.882812 20.40625 L 48.882812 17.3125 L 49.636719 17.3125 L 49.636719 20.40625 Z M 48.953125 17.171875 L 48.953125 16.707031 L 49.523438 16.707031 L 49.523438 17.171875 Z M 48.953125 17.171875 " fill-opacity="1" fill-rule="nonzero"/><path fill="#1e9956" d="M 15.441406 5.484375 L 15.421875 5.484375 L 15.359375 5.507812 L 15.351562 5.507812 L 15.183594 5.574219 L 15.085938 5.609375 L 14.910156 5.679688 L 14.824219 5.714844 L 14.644531 5.789062 L 14.5625 5.824219 L 14.382812 5.898438 L 14.300781 5.933594 L 14.117188 6.015625 L 14.042969 6.050781 L 13.855469 6.136719 L 13.785156 6.171875 L 13.53125 6.292969 C 13.449219 6.335938 13.363281 6.378906 13.28125 6.425781 C 12.269531 6.949219 11.332031 7.582031 10.464844 8.320312 C 9.597656 7.582031 8.660156 6.949219 7.648438 6.425781 C 7.566406 6.378906 7.480469 6.335938 7.394531 6.292969 L 7.144531 6.171875 L 7.074219 6.136719 L 6.882812 6.050781 L 6.808594 6.015625 L 6.625 5.933594 L 6.542969 5.898438 L 6.363281 5.824219 L 6.28125 5.789062 L 6.101562 5.714844 L 6.019531 5.679688 L 5.839844 5.609375 L 5.746094 5.574219 L 5.574219 5.507812 L 5.566406 5.507812 L 5.503906 5.484375 L 5.484375 5.484375 C 5.324219 5.546875 5.152344 5.621094 4.964844 5.703125 L 5.363281 5.835938 C 6.167969 6.101562 6.945312 6.425781 7.699219 6.8125 C 8.546875 7.246094 9.328125 7.773438 10.042969 8.394531 C 10.183594 8.519531 10.316406 8.640625 10.449219 8.773438 L 10.457031 8.78125 L 10.46875 8.773438 C 10.597656 8.644531 10.734375 8.519531 10.875 8.394531 C 11.59375 7.769531 12.378906 7.242188 13.230469 6.8125 C 13.984375 6.425781 14.761719 6.101562 15.566406 5.835938 L 15.964844 5.703125 C 15.777344 5.617188 15.601562 5.546875 15.441406 5.484375 Z M 15.441406 5.484375 " fill-opacity="1" fill-rule="nonzero"/><path fill="#003da0" d="M 17.421875 7.199219 C 17.335938 7.242188 17.25 7.28125 17.164062 7.328125 C 17.078125 7.371094 16.988281 7.421875 16.902344 7.46875 L 16.847656 7.5 C 16.804688 7.523438 16.761719 7.550781 16.714844 7.578125 L 16.582031 7.65625 C 16.070312 7.96875 15.613281 8.34375 15.210938 8.785156 C 14.703125 9.335938 14.347656 9.972656 14.136719 10.691406 C 13.9375 11.40625 13.867188 12.128906 13.925781 12.871094 C 13.972656 13.570312 14.082031 14.257812 14.261719 14.933594 C 14.429688 15.597656 14.613281 16.261719 14.78125 16.921875 C 14.953125 17.605469 15.089844 18.292969 15.066406 19 C 15.042969 19.671875 14.855469 20.292969 14.503906 20.867188 C 14.140625 21.460938 13.652344 21.945312 13.125 22.382812 C 13.515625 22.242188 13.894531 22.070312 14.261719 21.867188 L 14.265625 21.867188 C 14.371094 21.808594 14.472656 21.75 14.570312 21.691406 L 14.632812 21.648438 C 15.125 21.34375 15.570312 20.980469 15.96875 20.558594 C 16.15625 20.351562 16.3125 20.125 16.445312 19.882812 C 16.808594 19.199219 16.871094 18.460938 16.816406 17.710938 C 16.75 17.058594 16.636719 16.421875 16.46875 15.789062 C 16.203125 14.703125 15.898438 13.628906 15.753906 12.515625 C 15.660156 11.859375 15.648438 11.199219 15.722656 10.539062 C 15.871094 9.269531 16.425781 8.210938 17.386719 7.367188 C 17.488281 7.277344 17.589844 7.191406 17.695312 7.09375 C 17.601562 7.125 17.511719 7.160156 17.421875 7.199219 Z M 17.421875 7.199219 " fill-opacity="1" fill-rule="nonzero"/><path fill="#1e9956" d="M 13.546875 21.65625 C 13.734375 21.449219 13.890625 21.222656 14.023438 20.976562 C 14.386719 20.292969 14.449219 19.554688 14.390625 18.804688 C 14.328125 18.15625 14.214844 17.515625 14.046875 16.886719 C 13.78125 15.800781 13.476562 14.722656 13.332031 13.613281 C 13.238281 12.957031 13.226562 12.296875 13.300781 11.636719 C 13.445312 10.363281 14 9.304688 14.964844 8.460938 C 15.058594 8.371094 15.164062 8.285156 15.269531 8.1875 C 15.179688 8.21875 15.085938 8.253906 15 8.296875 C 14.914062 8.335938 14.824219 8.378906 14.742188 8.421875 C 14.65625 8.464844 14.566406 8.515625 14.480469 8.5625 L 14.425781 8.59375 C 14.382812 8.617188 14.335938 8.644531 14.292969 8.671875 C 14.25 8.699219 14.199219 8.726562 14.160156 8.753906 C 13.648438 9.066406 13.191406 9.441406 12.785156 9.882812 C 12.28125 10.433594 11.925781 11.070312 11.714844 11.789062 C 11.515625 12.5 11.445312 13.226562 11.503906 13.96875 C 11.550781 14.664062 11.660156 15.355469 11.839844 16.03125 C 12.007812 16.695312 12.191406 17.359375 12.359375 18.019531 C 12.53125 18.703125 12.667969 19.386719 12.644531 20.097656 C 12.621094 20.769531 12.433594 21.390625 12.082031 21.964844 C 11.71875 22.558594 11.230469 23.042969 10.703125 23.480469 C 11.09375 23.339844 11.472656 23.167969 11.839844 22.964844 C 11.945312 22.90625 12.046875 22.847656 12.144531 22.789062 L 12.207031 22.746094 C 12.703125 22.441406 13.148438 22.078125 13.546875 21.65625 Z M 13.546875 21.65625 " fill-opacity="1" fill-rule="nonzero"/><path fill="#003da0" d="M 6.433594 20.863281 C 6.082031 20.292969 5.894531 19.667969 5.875 18.996094 C 5.847656 18.289062 5.984375 17.601562 6.15625 16.921875 C 6.328125 16.257812 6.507812 15.59375 6.675781 14.929688 C 6.855469 14.253906 6.96875 13.566406 7.015625 12.867188 C 7.070312 12.128906 7 11.402344 6.800781 10.6875 C 6.589844 9.96875 6.230469 9.335938 5.726562 8.785156 C 5.320312 8.34375 4.863281 7.96875 4.355469 7.65625 L 4.21875 7.578125 C 4.175781 7.550781 4.132812 7.523438 4.085938 7.5 L 4.03125 7.46875 C 3.945312 7.417969 3.859375 7.371094 3.773438 7.328125 C 3.683594 7.28125 3.601562 7.242188 3.515625 7.199219 C 3.425781 7.160156 3.335938 7.125 3.242188 7.09375 C 3.347656 7.1875 3.449219 7.277344 3.546875 7.367188 C 4.511719 8.210938 5.066406 9.265625 5.214844 10.539062 C 5.289062 11.199219 5.277344 11.859375 5.179688 12.515625 C 5.035156 13.625 4.734375 14.703125 4.46875 15.789062 C 4.300781 16.417969 4.1875 17.058594 4.121094 17.707031 C 4.0625 18.464844 4.128906 19.195312 4.492188 19.878906 C 4.625 20.125 4.78125 20.351562 4.964844 20.558594 C 5.367188 20.976562 5.808594 21.339844 6.300781 21.648438 L 6.367188 21.6875 C 6.460938 21.746094 6.566406 21.808594 6.671875 21.867188 L 6.675781 21.867188 C 7.042969 22.066406 7.421875 22.238281 7.8125 22.378906 C 7.285156 21.941406 6.796875 21.457031 6.433594 20.863281 Z M 6.433594 20.863281 " fill-opacity="1" fill-rule="nonzero"/><path fill="#1e9956" d="M 8.855469 21.960938 C 8.503906 21.386719 8.316406 20.765625 8.296875 20.09375 C 8.269531 19.386719 8.40625 18.699219 8.582031 18.019531 C 8.75 17.355469 8.929688 16.691406 9.101562 16.027344 C 9.277344 15.351562 9.390625 14.664062 9.4375 13.964844 C 9.492188 13.226562 9.421875 12.5 9.222656 11.785156 C 9.011719 11.066406 8.65625 10.433594 8.148438 9.882812 C 7.746094 9.441406 7.289062 9.066406 6.777344 8.757812 L 6.644531 8.675781 C 6.597656 8.648438 6.554688 8.621094 6.511719 8.597656 L 6.457031 8.566406 C 6.371094 8.519531 6.28125 8.472656 6.195312 8.425781 C 6.109375 8.378906 6.023438 8.339844 5.9375 8.300781 C 5.847656 8.257812 5.757812 8.222656 5.664062 8.191406 C 5.773438 8.289062 5.875 8.375 5.972656 8.464844 C 6.933594 9.308594 7.492188 10.367188 7.640625 11.636719 C 7.714844 12.296875 7.703125 12.957031 7.605469 13.613281 C 7.460938 14.722656 7.160156 15.800781 6.894531 16.886719 C 6.726562 17.515625 6.609375 18.15625 6.546875 18.804688 C 6.488281 19.5625 6.550781 20.292969 6.917969 20.976562 C 7.046875 21.222656 7.207031 21.449219 7.390625 21.65625 C 7.789062 22.074219 8.234375 22.4375 8.726562 22.746094 L 8.789062 22.785156 C 8.886719 22.84375 8.988281 22.90625 9.09375 22.964844 L 9.101562 22.964844 C 9.464844 23.164062 9.84375 23.335938 10.238281 23.476562 C 9.707031 23.039062 9.21875 22.554688 8.855469 21.960938 Z M 8.855469 21.960938 " fill-opacity="1" fill-rule="nonzero"/><path fill="#003da0" d="M 13.960938 7.710938 C 15.003906 7.226562 16.09375 6.871094 17.222656 6.648438 C 17.371094 6.617188 17.523438 6.585938 17.695312 6.550781 C 17.503906 6.449219 17.324219 6.355469 17.148438 6.269531 C 16.984375 6.308594 16.816406 6.34375 16.652344 6.382812 C 15.574219 6.636719 14.539062 7.007812 13.542969 7.492188 C 12.921875 7.796875 12.335938 8.15625 11.78125 8.570312 C 11.320312 8.917969 10.472656 9.660156 10.472656 9.660156 C 10.472656 9.660156 9.621094 8.914062 9.160156 8.570312 C 8.605469 8.15625 8.019531 7.796875 7.398438 7.492188 C 6.402344 7.007812 5.367188 6.636719 4.289062 6.382812 C 4.125 6.34375 3.960938 6.308594 3.792969 6.269531 C 3.617188 6.355469 3.4375 6.457031 3.246094 6.550781 C 3.414062 6.585938 3.570312 6.613281 3.71875 6.648438 C 4.847656 6.871094 5.933594 7.226562 6.976562 7.710938 C 8.042969 8.21875 9.015625 8.867188 9.898438 9.648438 C 10.078125 9.804688 10.289062 9.996094 10.460938 10.167969 L 10.46875 10.175781 L 10.476562 10.167969 C 10.652344 9.996094 10.863281 9.804688 11.042969 9.648438 C 11.925781 8.867188 12.898438 8.21875 13.960938 7.710938 Z M 13.960938 7.710938 " fill-opacity="1" fill-rule="nonzero"/><path fill="#23428f" d="M 5.578125 5.5 L 5.515625 5.476562 Z M 5.578125 5.5 " fill-opacity="1" fill-rule="nonzero"/><path fill="#003da0" d="M 9.25 6.691406 C 9.613281 6.9375 10.085938 7.289062 10.457031 7.582031 L 10.464844 7.589844 L 10.472656 7.582031 C 10.84375 7.289062 11.316406 6.9375 11.675781 6.691406 C 12.394531 6.207031 13.144531 5.777344 13.925781 5.410156 L 14.480469 5.148438 C 14.441406 5.136719 13.988281 5.023438 13.902344 5.003906 L 13.894531 5.003906 L 13.867188 5.015625 L 13.703125 5.089844 L 13.542969 5.160156 L 13.386719 5.238281 C 13.335938 5.265625 13.28125 5.289062 13.226562 5.316406 C 13.171875 5.34375 13.113281 5.375 13.058594 5.402344 C 13.003906 5.433594 12.960938 5.453125 12.910156 5.480469 C 12.804688 5.535156 12.703125 5.589844 12.597656 5.648438 C 11.886719 6.054688 10.636719 7.019531 10.484375 7.140625 L 10.472656 7.148438 L 10.460938 7.140625 C 10.308594 7.019531 9.058594 6.054688 8.347656 5.648438 C 8.242188 5.589844 8.140625 5.535156 8.035156 5.480469 C 7.984375 5.453125 7.9375 5.429688 7.886719 5.402344 C 7.835938 5.378906 7.777344 5.34375 7.71875 5.316406 C 7.664062 5.289062 7.609375 5.265625 7.558594 5.238281 L 7.402344 5.160156 L 7.242188 5.089844 L 7.078125 5.015625 L 7.074219 5.015625 L 7.046875 5.003906 L 7.039062 5.003906 C 6.953125 5.023438 6.496094 5.136719 6.457031 5.148438 L 7.015625 5.410156 C 7.792969 5.777344 8.539062 6.207031 9.25 6.691406 Z M 9.25 6.691406 " fill-opacity="1" fill-rule="nonzero"/></svg>