<svg xmlns="http://www.w3.org/2000/svg" xmlns:xlink="http://www.w3.org/1999/xlink" width="46" zoomAndPan="magnify" viewBox="0 0 34.5 41.25" height="55" preserveAspectRatio="xMidYMid meet" version="1.0"><path fill="#1e9956" d="M 26.835938 3.105469 C 26.832031 3.101562 26.824219 3.101562 26.820312 3.097656 C 26.820312 3.097656 26.808594 3.09375 26.796875 3.089844 C 26.757812 3.105469 26.667969 3.140625 26.667969 3.140625 C 26.667969 3.140625 26.671875 3.140625 26.671875 3.140625 C 26.664062 3.144531 26.65625 3.144531 26.65625 3.148438 C 26.539062 3.191406 26.429688 3.234375 26.316406 3.277344 C 26.253906 3.300781 26.191406 3.324219 26.128906 3.347656 C 26.011719 3.394531 25.890625 3.441406 25.773438 3.492188 C 25.714844 3.511719 25.65625 3.535156 25.601562 3.558594 C 25.480469 3.605469 25.359375 3.65625 25.242188 3.707031 C 25.183594 3.730469 25.128906 3.753906 25.074219 3.777344 C 24.953125 3.828125 24.835938 3.878906 24.714844 3.929688 C 24.660156 3.953125 24.605469 3.976562 24.546875 4.003906 C 24.425781 4.054688 24.304688 4.113281 24.179688 4.167969 C 24.128906 4.191406 24.078125 4.210938 24.027344 4.234375 C 23.898438 4.292969 23.773438 4.355469 23.648438 4.414062 C 23.601562 4.4375 23.554688 4.457031 23.507812 4.480469 C 23.339844 4.5625 23.167969 4.644531 23 4.730469 C 23 4.730469 23 4.730469 22.996094 4.730469 C 22.828125 4.816406 22.65625 4.902344 22.488281 4.992188 C 20.441406 6.066406 18.566406 7.308594 16.816406 8.804688 C 15.066406 7.308594 13.191406 6.066406 11.144531 4.992188 C 10.976562 4.902344 10.804688 4.816406 10.636719 4.730469 C 10.636719 4.730469 10.632812 4.730469 10.632812 4.730469 C 10.464844 4.644531 10.292969 4.5625 10.125 4.480469 C 10.078125 4.457031 10.03125 4.4375 9.984375 4.414062 C 9.859375 4.355469 9.734375 4.292969 9.605469 4.234375 C 9.554688 4.210938 9.503906 4.191406 9.453125 4.167969 C 9.332031 4.113281 9.207031 4.058594 9.085938 4.003906 C 9.027344 3.976562 8.972656 3.953125 8.917969 3.929688 C 8.796875 3.878906 8.679688 3.828125 8.5625 3.777344 C 8.503906 3.753906 8.449219 3.730469 8.390625 3.707031 C 8.273438 3.65625 8.152344 3.605469 8.03125 3.558594 C 7.976562 3.535156 7.917969 3.511719 7.859375 3.492188 C 7.742188 3.441406 7.621094 3.394531 7.503906 3.347656 C 7.441406 3.324219 7.378906 3.300781 7.316406 3.277344 C 7.203125 3.234375 7.09375 3.191406 6.976562 3.148438 C 6.976562 3.148438 6.972656 3.144531 6.960938 3.140625 C 6.960938 3.140625 6.960938 3.140625 6.964844 3.140625 C 6.964844 3.140625 6.875 3.105469 6.835938 3.089844 C 6.824219 3.09375 6.816406 3.097656 6.8125 3.097656 C 6.808594 3.101562 6.800781 3.101562 6.796875 3.105469 C 6.472656 3.234375 6.125 3.378906 5.75 3.542969 C 6.03125 3.640625 6.296875 3.726562 6.554688 3.8125 C 8.171875 4.351562 9.746094 4.992188 11.257812 5.78125 C 12.953125 6.660156 14.542969 7.703125 15.980469 8.96875 C 16.257812 9.214844 16.53125 9.464844 16.796875 9.726562 C 16.804688 9.730469 16.808594 9.734375 16.816406 9.742188 C 16.820312 9.734375 16.828125 9.730469 16.832031 9.726562 C 17.097656 9.464844 17.371094 9.214844 17.652344 8.96875 C 19.089844 7.703125 20.675781 6.660156 22.371094 5.78125 C 23.886719 4.992188 25.460938 4.351562 27.078125 3.8125 C 27.335938 3.726562 27.597656 3.640625 27.878906 3.542969 C 27.503906 3.378906 27.15625 3.234375 26.832031 3.105469 Z M 26.835938 3.105469 " fill-opacity="1" fill-rule="nonzero"/><path fill="#003da0" d="M 30.824219 6.5625 C 30.648438 6.644531 30.476562 6.726562 30.304688 6.816406 C 30.128906 6.90625 29.953125 7 29.777344 7.097656 C 29.742188 7.121094 29.707031 7.140625 29.671875 7.160156 C 29.578125 7.214844 29.492188 7.265625 29.402344 7.316406 C 29.308594 7.375 29.21875 7.429688 29.132812 7.480469 C 28.117188 8.109375 27.183594 8.851562 26.367188 9.75 C 25.355469 10.867188 24.632812 12.144531 24.207031 13.589844 C 23.789062 15.023438 23.6875 16.488281 23.777344 17.972656 C 23.867188 19.382812 24.105469 20.765625 24.457031 22.132812 C 24.796875 23.46875 25.164062 24.800781 25.503906 26.140625 C 25.851562 27.511719 26.125 28.894531 26.074219 30.324219 C 26.023438 31.675781 25.648438 32.929688 24.941406 34.082031 C 24.210938 35.28125 23.230469 36.253906 22.164062 37.144531 C 23.019531 36.835938 23.785156 36.480469 24.460938 36.105469 C 24.460938 36.105469 24.464844 36.105469 24.46875 36.101562 C 24.683594 35.984375 24.886719 35.863281 25.082031 35.742188 C 25.125 35.714844 25.167969 35.6875 25.210938 35.660156 C 26.476562 34.863281 27.363281 34.042969 27.902344 33.464844 C 28.265625 33.050781 28.585938 32.601562 28.851562 32.101562 C 29.585938 30.722656 29.714844 29.242188 29.597656 27.722656 C 29.496094 26.414062 29.210938 25.132812 28.898438 23.855469 C 28.363281 21.671875 27.757812 19.503906 27.464844 17.265625 C 27.289062 15.941406 27.230469 14.617188 27.394531 13.285156 C 27.710938 10.734375 28.851562 8.613281 30.753906 6.894531 C 30.953125 6.714844 31.15625 6.535156 31.371094 6.347656 C 31.203125 6.402344 31.015625 6.476562 30.820312 6.5625 Z M 30.824219 6.5625 " fill-opacity="1" fill-rule="nonzero"/><path fill="#1e9956" d="M 23.023438 35.675781 C 23.382812 35.261719 23.707031 34.8125 23.972656 34.3125 C 24.707031 32.933594 24.835938 31.453125 24.71875 29.933594 C 24.617188 28.621094 24.332031 27.34375 24.019531 26.066406 C 23.484375 23.882812 22.878906 21.714844 22.585938 19.476562 C 22.410156 18.152344 22.351562 16.828125 22.515625 15.496094 C 22.832031 12.945312 23.972656 10.824219 25.875 9.105469 C 26.074219 8.925781 26.277344 8.746094 26.492188 8.558594 C 26.320312 8.609375 26.136719 8.683594 25.941406 8.773438 C 25.769531 8.855469 25.59375 8.9375 25.425781 9.027344 C 25.246094 9.117188 25.074219 9.214844 24.898438 9.308594 C 24.863281 9.332031 24.828125 9.351562 24.789062 9.371094 C 24.699219 9.425781 24.609375 9.476562 24.523438 9.53125 C 24.429688 9.585938 24.339844 9.640625 24.253906 9.691406 C 23.238281 10.320312 22.304688 11.0625 21.488281 11.960938 C 20.476562 13.078125 19.75 14.355469 19.328125 15.800781 C 18.910156 17.234375 18.804688 18.699219 18.898438 20.183594 C 18.984375 21.59375 19.226562 22.976562 19.574219 24.34375 C 19.917969 25.679688 20.28125 27.011719 20.621094 28.351562 C 20.972656 29.722656 21.242188 31.105469 21.191406 32.535156 C 21.144531 33.890625 20.765625 35.140625 20.0625 36.292969 C 19.332031 37.492188 18.351562 38.464844 17.285156 39.355469 C 18.136719 39.046875 18.90625 38.691406 19.578125 38.320312 C 19.582031 38.316406 19.585938 38.316406 19.589844 38.3125 C 19.800781 38.195312 20.003906 38.074219 20.203125 37.953125 C 20.246094 37.925781 20.289062 37.898438 20.332031 37.871094 C 21.59375 37.074219 22.480469 36.253906 23.023438 35.679688 Z M 23.023438 35.675781 " fill-opacity="1" fill-rule="nonzero"/><path fill="#003da0" d="M 8.691406 34.082031 C 7.988281 32.929688 7.609375 31.675781 7.5625 30.324219 C 7.511719 28.894531 7.78125 27.511719 8.132812 26.140625 C 8.472656 24.800781 8.835938 23.46875 9.179688 22.132812 C 9.527344 20.765625 9.765625 19.382812 9.855469 17.972656 C 9.949219 16.488281 9.84375 15.023438 9.425781 13.589844 C 9.003906 12.144531 8.277344 10.867188 7.265625 9.75 C 6.449219 8.851562 5.515625 8.109375 4.5 7.480469 C 4.414062 7.429688 4.324219 7.375 4.230469 7.316406 C 4.140625 7.265625 4.054688 7.214844 3.964844 7.160156 C 3.925781 7.140625 3.890625 7.121094 3.855469 7.097656 C 3.679688 7 3.503906 6.90625 3.328125 6.816406 C 3.15625 6.726562 2.984375 6.644531 2.808594 6.5625 C 2.617188 6.472656 2.429688 6.402344 2.261719 6.347656 C 2.476562 6.535156 2.679688 6.714844 2.878906 6.894531 C 4.78125 8.613281 5.921875 10.734375 6.238281 13.285156 C 6.402344 14.617188 6.339844 15.941406 6.167969 17.265625 C 5.875 19.503906 5.265625 21.671875 4.734375 23.855469 C 4.421875 25.128906 4.136719 26.410156 4.035156 27.722656 C 3.917969 29.242188 4.046875 30.722656 4.78125 32.101562 C 5.046875 32.601562 5.367188 33.050781 5.730469 33.464844 C 6.269531 34.039062 7.15625 34.859375 8.421875 35.660156 C 8.464844 35.6875 8.507812 35.714844 8.550781 35.742188 C 8.746094 35.863281 8.949219 35.984375 9.164062 36.101562 C 9.167969 36.101562 9.167969 36.105469 9.171875 36.105469 C 9.847656 36.480469 10.613281 36.835938 11.46875 37.140625 C 10.398438 36.253906 9.421875 35.28125 8.691406 34.082031 Z M 8.691406 34.082031 " fill-opacity="1" fill-rule="nonzero"/><path fill="#1e9956" d="M 13.574219 36.292969 C 12.867188 35.140625 12.492188 33.886719 12.441406 32.53125 C 12.390625 31.105469 12.664062 29.722656 13.011719 28.351562 C 13.351562 27.011719 13.71875 25.679688 14.058594 24.34375 C 14.40625 22.976562 14.648438 21.59375 14.734375 20.183594 C 14.828125 18.699219 14.726562 17.234375 14.308594 15.800781 C 13.882812 14.355469 13.160156 13.078125 12.148438 11.960938 C 11.332031 11.058594 10.398438 10.320312 9.382812 9.691406 C 9.296875 9.640625 9.207031 9.585938 9.113281 9.527344 C 9.023438 9.476562 8.933594 9.421875 8.84375 9.371094 C 8.808594 9.351562 8.773438 9.332031 8.734375 9.308594 C 8.5625 9.210938 8.386719 9.117188 8.210938 9.027344 C 8.039062 8.9375 7.863281 8.855469 7.691406 8.773438 C 7.496094 8.683594 7.3125 8.609375 7.140625 8.558594 C 7.355469 8.746094 7.5625 8.925781 7.761719 9.105469 C 9.660156 10.824219 10.800781 12.945312 11.117188 15.496094 C 11.28125 16.824219 11.222656 18.152344 11.050781 19.476562 C 10.753906 21.714844 10.148438 23.882812 9.613281 26.066406 C 9.300781 27.339844 9.015625 28.621094 8.917969 29.933594 C 8.800781 31.453125 8.929688 32.933594 9.660156 34.3125 C 9.925781 34.808594 10.25 35.261719 10.609375 35.675781 C 11.152344 36.25 12.039062 37.070312 13.300781 37.871094 C 13.34375 37.898438 13.386719 37.925781 13.429688 37.953125 C 13.628906 38.074219 13.832031 38.195312 14.042969 38.3125 C 14.046875 38.3125 14.050781 38.316406 14.054688 38.316406 C 14.730469 38.691406 15.496094 39.046875 16.347656 39.351562 C 15.28125 38.464844 14.300781 37.492188 13.570312 36.292969 Z M 13.574219 36.292969 " fill-opacity="1" fill-rule="nonzero"/><path fill="#003da0" d="M 23.851562 7.589844 C 25.953125 6.59375 28.152344 5.914062 30.417969 5.445312 C 30.71875 5.382812 31.027344 5.324219 31.367188 5.257812 C 30.984375 5.054688 30.617188 4.859375 30.265625 4.679688 C 29.933594 4.761719 29.601562 4.835938 29.269531 4.914062 C 27.101562 5.441406 25.003906 6.15625 23.003906 7.148438 C 21.757812 7.765625 20.570312 8.484375 19.457031 9.316406 C 18.523438 10.015625 16.816406 11.511719 16.816406 11.511719 C 16.816406 11.511719 15.105469 10.015625 14.175781 9.316406 C 13.058594 8.484375 11.875 7.765625 10.625 7.148438 C 8.628906 6.15625 6.527344 5.441406 4.363281 4.914062 C 4.03125 4.835938 3.699219 4.757812 3.363281 4.679688 C 3.011719 4.859375 2.644531 5.054688 2.261719 5.257812 C 2.601562 5.324219 2.910156 5.382812 3.210938 5.445312 C 5.480469 5.914062 7.679688 6.59375 9.777344 7.589844 C 11.925781 8.609375 13.878906 9.921875 15.664062 11.492188 C 16.023438 11.804688 16.449219 12.191406 16.796875 12.535156 C 16.804688 12.542969 16.808594 12.546875 16.816406 12.550781 C 16.820312 12.546875 16.828125 12.542969 16.832031 12.535156 C 17.179688 12.191406 17.609375 11.804688 17.964844 11.492188 C 19.75 9.921875 21.703125 8.609375 23.851562 7.589844 Z M 23.851562 7.589844 " fill-opacity="1" fill-rule="nonzero"/><path fill="#21478e" d="M 6.964844 3.140625 C 6.933594 3.128906 6.871094 3.101562 6.835938 3.089844 C 6.878906 3.105469 6.96875 3.140625 6.964844 3.140625 Z M 6.964844 3.140625 " fill-opacity="1" fill-rule="nonzero"/><path fill="#003da0" d="M 14.375 5.535156 C 15.101562 6.03125 16.050781 6.738281 16.800781 7.332031 C 16.804688 7.335938 16.8125 7.339844 16.816406 7.34375 C 16.824219 7.339844 16.828125 7.335938 16.832031 7.332031 C 17.582031 6.738281 18.535156 6.03125 19.261719 5.535156 C 20.703125 4.558594 22.210938 3.695312 23.789062 2.953125 C 24.148438 2.78125 24.507812 2.613281 24.910156 2.425781 C 24.832031 2.402344 23.914062 2.171875 23.738281 2.140625 C 23.734375 2.136719 23.730469 2.136719 23.726562 2.136719 C 23.707031 2.144531 23.679688 2.152344 23.667969 2.15625 C 23.667969 2.15625 23.667969 2.15625 23.664062 2.160156 C 23.664062 2.160156 23.664062 2.160156 23.660156 2.160156 C 23.550781 2.207031 23.441406 2.257812 23.335938 2.308594 C 23.226562 2.355469 23.117188 2.402344 23.011719 2.453125 C 22.90625 2.503906 22.800781 2.554688 22.699219 2.605469 C 22.585938 2.660156 22.476562 2.710938 22.367188 2.765625 C 22.253906 2.824219 22.144531 2.882812 22.03125 2.941406 C 21.933594 2.992188 21.832031 3.042969 21.734375 3.09375 C 21.523438 3.207031 21.3125 3.320312 21.105469 3.4375 C 19.671875 4.25 17.152344 6.199219 16.847656 6.4375 C 16.835938 6.445312 16.828125 6.449219 16.824219 6.453125 C 16.820312 6.457031 16.816406 6.460938 16.816406 6.460938 C 16.816406 6.460938 16.8125 6.457031 16.808594 6.453125 C 16.800781 6.449219 16.792969 6.445312 16.785156 6.4375 C 16.480469 6.199219 13.960938 4.25 12.523438 3.4375 C 12.316406 3.320312 12.109375 3.207031 11.898438 3.09375 C 11.796875 3.042969 11.699219 2.992188 11.597656 2.941406 C 11.488281 2.882812 11.375 2.824219 11.261719 2.765625 C 11.15625 2.710938 11.042969 2.660156 10.933594 2.605469 C 10.828125 2.554688 10.726562 2.503906 10.621094 2.453125 C 10.515625 2.40625 10.40625 2.355469 10.296875 2.308594 C 10.1875 2.257812 10.082031 2.207031 9.972656 2.160156 C 9.972656 2.160156 9.96875 2.160156 9.96875 2.160156 C 9.96875 2.160156 9.96875 2.160156 9.964844 2.160156 C 9.964844 2.160156 9.964844 2.160156 9.960938 2.15625 C 9.949219 2.152344 9.925781 2.144531 9.90625 2.136719 C 9.902344 2.136719 9.898438 2.136719 9.890625 2.140625 C 9.714844 2.171875 8.800781 2.402344 8.722656 2.425781 C 9.125 2.613281 9.484375 2.78125 9.839844 2.953125 C 11.417969 3.695312 12.929688 4.558594 14.371094 5.535156 Z M 14.375 5.535156 " fill-opacity="1" fill-rule="nonzero"/></svg>